<?xml version="1.0" standalone="no"?>
<!DOCTYPE svg PUBLIC "-//W3C//DTD SVG 1.1//EN" "http://www.w3.org/Graphics/SVG/1.1/DTD/svg11.dtd" >
<svg xmlns="http://www.w3.org/2000/svg" xmlns:xlink="http://www.w3.org/1999/xlink" version="1.1">
<metadata>
Created by FontForge 20170731 at Mon May 27 12:40:29 2019
 By Aleksey,,,
Copyright (c) 2019 by Almarai. All rights reserved.
</metadata>
<defs>
<font id="Almarai-Light" horiz-adv-x="0" >
  <font-face 
    font-family="Almarai Light"
    font-weight="300"
    font-stretch="normal"
    units-per-em="1000"
    panose-1="0 0 0 0 0 0 0 0 0 0"
    ascent="800"
    descent="-200"
    bbox="-81 -378 2665 1082"
    underline-thickness="63"
    underline-position="-187"
    unicode-range="U+0020-FEFC"
  />
<missing-glyph horiz-adv-x="184" 
d="M18 0v716h148v-716h-148zM148 18v680h-112v-680h112z" />
    <glyph glyph-name="uniE002" unicode="&#xfedf;&#xfb51;" horiz-adv-x="669" 
d="M173 714q51 83 118 83q29 0 49 -19t20 -46q0 -35 -28 -56.5t-75 -21.5q-38 0 -95 19q-38 13 -48 13q-26 0 -57 -28l-18 13q35 55 79 55q19 0 55 -12zM202 703q44 -14 71 -14q24 0 40 11.5t16 28.5q0 34 -37 34q-48 0 -90 -60zM600 716v-633q0 -34 -26 -59
q-21 -22 -51 -24h-464l-24 29v24h288l-178 540h62l177 -540h112q22 0 34 11q13 13 13 36v616h57z" />
    <glyph glyph-name="uniE003" unicode="&#xfee0;&#xfb51;" horiz-adv-x="645" 
d="M173 714q51 83 118 83q29 0 49 -19t20 -46q0 -35 -28 -56.5t-75 -21.5q-38 0 -95 19q-38 13 -48 13q-26 0 -57 -28l-18 13q35 55 79 55q19 0 55 -12zM202 703q44 -14 71 -14q24 0 40 11.5t16 28.5q0 34 -37 34q-48 0 -90 -60zM600 716v-633q0 -15 -6 -30h55v-53h-43
l-22 31h-3q-10 -12 -23 -20q-16 -10 -35 -11h-464l-24 29v24h288l-178 540h62l177 -540h112q24 0 36 14q11 12 11 33v616h57z" />
    <glyph glyph-name="uniE041" unicode="&#xfb58;&#xfbfd;" horiz-adv-x="983" 
d="M914 460v-377q0 -34 -26 -59q-23 -24 -55 -24h-140q0 -115 -66 -177t-186 -62h-120q-113 0 -178 55q-74 62 -74 182v153l29 23h29v-177q0 -104 55 -144t199 -40q132 0 188 36q66 43 66 151h-85l-23 28v25h282q47 0 47 47v360h58zM773 -127q15 0 26.5 -11t11.5 -27
q0 -15 -11.5 -26.5t-26.5 -11.5q-16 0 -27 11.5t-11 26.5q0 16 11 27t27 11zM872 -127q15 0 26.5 -11t11.5 -27q0 -15 -11.5 -26.5t-26.5 -11.5q-16 0 -27 11.5t-11 26.5q0 16 11 27t27 11zM823 -206q15 0 26 -11t11 -27q0 -15 -11 -26t-26 -11q-16 0 -27 11t-11 26
q0 16 11 27t27 11z" />
    <glyph glyph-name="uniE042" unicode="&#xfb59;&#xfbfd;" horiz-adv-x="959" 
d="M914 460v-377q0 -14 -6 -30h54v-53h-42l-23 31h-2q-26 -31 -62 -31h-140q0 -115 -66 -177t-186 -62h-120q-113 0 -178 55q-74 62 -74 182v153l29 23h29v-177q0 -104 55 -144t199 -40q132 0 188 36q66 43 66 151h-85l-23 28v25h282q47 0 47 47v360h58zM773 -127
q15 0 26.5 -11t11.5 -27q0 -15 -11.5 -26.5t-26.5 -11.5q-16 0 -27 11.5t-11 26.5q0 16 11 27t27 11zM872 -127q15 0 26.5 -11t11.5 -27q0 -15 -11.5 -26.5t-26.5 -11.5q-16 0 -27 11.5t-11 26.5q0 16 11 27t27 11zM823 -206q15 0 26 -11t11 -27q0 -15 -11 -26t-26 -11
q-16 0 -27 11t-11 26q0 16 11 27t27 11z" />
    <glyph glyph-name="uniE043" unicode="&#xfb58;&#xfef2;" horiz-adv-x="983" 
d="M914 460v-377q0 -34 -26 -59q-23 -24 -55 -24h-140q0 -115 -66 -177t-186 -62h-120q-113 0 -178 55q-74 62 -74 182v153l29 23h29v-177q0 -104 55 -144t199 -40q132 0 188 36q66 43 66 151h-85l-23 28v25h282q47 0 47 47v360h58zM777 -122q16 0 27 -11.5t11 -26.5
q0 -16 -11 -27t-27 -11q-15 0 -26 11t-11 27q0 15 11 26.5t26 11.5zM876 -122q16 0 27 -11.5t11 -26.5q0 -16 -11 -27t-27 -11q-15 0 -26 11t-11 27q0 15 11 26.5t26 11.5zM827 -201q15 0 26 -11t11 -27q0 -15 -11 -26t-26 -11t-26.5 11t-11.5 26q0 16 11.5 27t26.5 11z
M329 -297q16 0 27 -11.5t11 -26.5q0 -16 -11 -27t-27 -11q-15 0 -26.5 11t-11.5 27q0 15 11.5 26.5t26.5 11.5zM428 -297q15 0 26 -11.5t11 -26.5q0 -16 -11 -27t-26 -11q-16 0 -27 11t-11 27q0 15 11 26.5t27 11.5z" />
    <glyph glyph-name="uniE044" unicode="&#xfb59;&#xfef2;" horiz-adv-x="959" 
d="M914 460v-377q0 -15 -6 -30h55v-53h-43l-22 31h-3q-26 -31 -62 -31h-140q0 -115 -66 -177t-186 -62h-120q-113 0 -178 55q-74 62 -74 182v153l29 23h29v-177q0 -104 55 -144t199 -40q132 0 188 36q66 43 66 151h-85l-23 28v25h283q47 0 47 47v360h57zM778 -127
q15 0 26.5 -11t11.5 -27q0 -15 -11.5 -26.5t-26.5 -11.5q-16 0 -27 11.5t-11 26.5q0 16 11 27t27 11zM876 -127q16 0 27 -11t11 -27q0 -15 -11 -26.5t-27 -11.5q-15 0 -26 11.5t-11 26.5q0 16 11 27t26 11zM827 -206q15 0 26 -11t11 -27q0 -15 -11 -26t-26 -11t-26.5 11
t-11.5 26q0 16 11.5 27t26.5 11zM329 -297q16 0 27 -11.5t11 -26.5q0 -16 -11 -27t-27 -11q-15 0 -26.5 11t-11.5 27q0 15 11.5 26.5t26.5 11.5zM428 -297q15 0 26 -11.5t11 -26.5q0 -16 -11 -27t-26 -11q-16 0 -27 11t-11 27q0 15 11 26.5t27 11.5z" />
    <glyph glyph-name="uniE045" unicode="&#xfb58;&#xfe8a;" horiz-adv-x="1007" 
d="M112 322q-23 28 -23 71q0 34 22.5 57t56.5 23q24 0 49 -9v-30q-20 7 -38 7q-56 0 -56 -58q0 -23 15 -41q19 -20 47 -20h64v-12l-16 -20h-164v32h43zM937 460v-377q0 -34 -26 -59q-23 -24 -55 -24h-140q0 -115 -65 -177q-66 -62 -187 -62h-120q-112 0 -178 55
q-73 62 -73 182v153l29 23h28v-177q0 -104 55 -144t200 -40q132 0 187 36q67 43 67 151h-86l-23 28v25h283q47 0 47 47v360h57zM801 -104q15 0 26.5 -11t11.5 -27q0 -15 -11.5 -26.5t-26.5 -11.5q-16 0 -27 11.5t-11 26.5q0 16 11 27t27 11zM900 -104q15 0 26.5 -11
t11.5 -27q0 -15 -11.5 -26.5t-26.5 -11.5q-16 0 -27 11.5t-11 26.5q0 16 11 27t27 11zM851 -183q15 0 26 -11t11 -26q0 -16 -11 -27t-26 -11q-16 0 -27 11t-11 27q0 15 11 26t27 11z" />
    <glyph glyph-name="uniE046" unicode="&#xfb59;&#xfe8a;" horiz-adv-x="983" 
d="M112 322q-23 28 -23 71q0 34 22.5 57t56.5 23q24 0 49 -9v-30q-20 7 -38 7q-56 0 -56 -58q0 -23 15 -41q19 -20 47 -20h64v-12l-16 -20h-164v32h43zM938 460v-377q0 -14 -6 -30h54v-53h-42l-23 31h-2q-26 -31 -62 -31h-141q0 -115 -65 -177q-66 -62 -187 -62h-120
q-112 0 -178 55q-74 62 -74 182v153l30 23h28v-177q0 -104 55 -144t200 -40q132 0 187 36q67 43 67 151h-86l-23 28v25h283q47 0 47 47v360h58zM801 -104q16 0 27 -11t11 -27q0 -15 -11 -26.5t-27 -11.5q-15 0 -26 11.5t-11 26.5q0 16 11 27t26 11zM900 -104q15 0 26.5 -11
t11.5 -27q0 -15 -11.5 -26.5t-26.5 -11.5q-16 0 -27 11.5t-11 26.5q0 16 11 27t27 11zM851 -183q15 0 26 -11t11 -26q0 -16 -11 -27t-26 -11q-16 0 -27 11t-11 27q0 15 11 26t27 11z" />
    <glyph glyph-name="uniE047" unicode="&#xfb90;&#xfe8a;" horiz-adv-x="1068" 
d="M918 732v-51l-267 -153q158 -27 266 -160q96 -117 96 -254q0 -114 -84 -114h-209q0 -115 -65 -177q-66 -62 -186 -62h-121q-112 0 -178 55q-73 62 -73 182v153l29 23h28v-177q0 -104 55 -144t200 -40q132 0 187 36q67 43 67 151h-86l-22 28v25h350q50 0 50 66
q0 141 -115 253q-98 94 -221 108q-4 1 -4 6v72zM112 322q-23 28 -23 71q0 34 22.5 57t56.5 23q24 0 49 -9v-30q-20 7 -38 7q-56 0 -56 -58q0 -23 15 -41q19 -20 47 -20h64v-12l-16 -20h-164v32h43z" />
    <glyph glyph-name="uniE048" unicode="&#xfb91;&#xfe8a;" horiz-adv-x="1033" 
d="M918 732v-51l-267 -153q158 -27 266 -160q96 -117 96 -254q0 -38 -9 -61h33v-53h-20l-22 31h-3q-23 -31 -63 -31h-209q0 -115 -65 -177q-66 -62 -186 -62h-121q-112 0 -178 55q-73 62 -73 182v153l29 23h28v-177q0 -104 55 -144t200 -40q132 0 187 36q67 43 67 151h-86
l-22 28v25h350q50 0 50 66q0 141 -115 253q-98 94 -221 108q-4 1 -4 6v72zM112 322q-23 28 -23 71q0 34 22.5 57t56.5 23q24 0 49 -9v-30q-20 7 -38 7q-56 0 -56 -58q0 -23 15 -41q19 -20 47 -20h64v-12l-16 -20h-164v32h43z" />
    <glyph glyph-name="uniE049" unicode="&#xfb94;&#xfef0;" horiz-adv-x="1040" 
d="M587 649l303 175v-42l-303 -176v43zM890 732v-51l-267 -153q159 -27 267 -160q95 -116 95 -254q0 -114 -84 -114h-208q0 -115 -66 -177t-186 -62h-120q-113 0 -178 55q-74 62 -74 182v153l29 23h29v-177q0 -104 55 -144t199 -40q132 0 188 36q66 43 66 151h-85l-23 28v25
h351q50 0 50 66q0 141 -116 253q-98 94 -221 108q-4 1 -4 6v72z" />
    <glyph glyph-name="uniE04A" unicode="&#xfb95;&#xfef0;" horiz-adv-x="1006" 
d="M587 649l303 175v-42l-303 -176v43zM890 732v-51l-267 -153q159 -27 267 -160q95 -116 95 -254q0 -39 -9 -61h33v-53h-19l-23 31l-2 1q-24 -32 -64 -32h-208q0 -115 -66 -177t-186 -62h-120q-113 0 -178 55q-74 62 -74 182v153l29 23h29v-177q0 -104 55 -144t199 -40
q132 0 188 36q66 43 66 151h-85l-23 28v25h351q50 0 50 66q0 141 -116 253q-98 94 -221 108q-4 1 -4 6v72z" />
    <glyph glyph-name="uniE04B" unicode="&#xfb94;&#xfef2;" horiz-adv-x="1040" 
d="M587 649l303 175v-42l-303 -176v43zM890 732v-51l-267 -153q159 -27 267 -160q95 -116 95 -254q0 -114 -84 -114h-208q0 -115 -66 -177t-186 -62h-120q-113 0 -178 55q-74 62 -74 182v153l29 23h29v-177q0 -104 55 -144t199 -40q132 0 188 36q66 43 66 151h-85l-23 28v25
h351q50 0 50 66q0 141 -116 253q-98 94 -221 108q-4 1 -4 6v72zM329 -297q16 0 27 -11.5t11 -26.5q0 -16 -11 -27t-27 -11q-15 0 -26.5 11t-11.5 27q0 15 11.5 26.5t26.5 11.5zM428 -297q15 0 26 -11.5t11 -26.5q0 -16 -11 -27t-26 -11q-16 0 -27 11t-11 27q0 15 11 26.5
t27 11.5z" />
    <glyph glyph-name="uniE04C" unicode="&#xfb95;&#xfef2;" horiz-adv-x="1006" 
d="M587 649l303 175v-42l-303 -176v43zM890 732v-51l-267 -153q159 -27 267 -160q95 -116 95 -254q0 -39 -9 -61h33v-53h-19l-23 31l-2 1q-24 -32 -64 -32h-208q0 -115 -66 -177t-186 -62h-120q-113 0 -178 55q-74 62 -74 182v153l29 23h29v-177q0 -104 55 -144t199 -40
q132 0 188 36q66 43 66 151h-85l-23 28v25h351q50 0 50 66q0 141 -116 253q-98 94 -221 108q-4 1 -4 6v72zM329 -297q16 0 27 -11.5t11 -26.5q0 -16 -11 -27t-27 -11q-15 0 -26.5 11t-11.5 27q0 15 11.5 26.5t26.5 11.5zM428 -297q15 0 26 -11.5t11 -26.5q0 -16 -11 -27
t-26 -11q-16 0 -27 11t-11 27q0 15 11 26.5t27 11.5z" />
    <glyph glyph-name="uniE04D" unicode="&#xfb94;&#xfe8a;" horiz-adv-x="1045" 
d="M591 649l304 175v-42l-304 -176v43zM895 732v-51l-267 -153q158 -27 266 -160q96 -116 96 -254q0 -114 -84 -114h-209q0 -115 -65 -177q-66 -62 -186 -62h-121q-112 0 -178 55q-73 62 -73 182v153l29 23h28v-177q0 -104 55 -144t200 -40q132 0 187 36q67 43 67 151h-86
l-22 28v25h350q50 0 50 66q0 141 -116 253q-97 94 -220 108q-5 1 -5 6v72zM112 322q-23 28 -23 71q0 34 22.5 57t56.5 23q24 0 49 -9v-30q-20 7 -38 7q-56 0 -56 -58q0 -23 15 -41q19 -20 47 -20h64v-12l-16 -20h-164v32h43z" />
    <glyph glyph-name="uniE04E" unicode="&#xfb95;&#xfe8a;" horiz-adv-x="1010" 
d="M591 649l304 175v-42l-304 -176v43zM895 732v-51l-267 -153q158 -27 266 -160q96 -116 96 -254q0 -39 -9 -61h33v-53h-20l-22 31l-3 1q-23 -32 -63 -32h-209q0 -115 -65 -177q-66 -62 -186 -62h-121q-112 0 -178 55q-73 62 -73 182v153l29 23h28v-177q0 -104 55 -144
t200 -40q132 0 187 36q67 43 67 151h-86l-22 28v25h350q50 0 50 66q0 141 -116 253q-97 94 -220 108q-5 1 -5 6v72zM112 322q-23 28 -23 71q0 34 22.5 57t56.5 23q24 0 49 -9v-30q-20 7 -38 7q-56 0 -56 -58q0 -23 15 -41q19 -20 47 -20h64v-12l-16 -20h-164v32h43z" />
    <glyph glyph-name="uniE051" unicode="&#xfbfe;&#xfe8a;" horiz-adv-x="1006" 
d="M112 322q-23 28 -23 71q0 34 22.5 57t56.5 23q24 0 49 -9v-30q-20 7 -38 7q-56 0 -56 -58q0 -23 15 -41q19 -20 47 -20h64v-12l-16 -20h-164v32h43zM937 460v-377q0 -34 -26 -59q-23 -24 -55 -24h-140q0 -115 -65 -177q-66 -62 -187 -62h-120q-112 0 -178 55
q-73 62 -73 182v153l29 23h28v-177q0 -104 55 -144t200 -40q132 0 187 36q67 43 67 151h-86l-23 28v25h283q47 0 47 47v360h57zM793 -127q15 0 26 -11t11 -27q0 -15 -11 -26.5t-26 -11.5q-16 0 -27 11.5t-11 26.5q0 16 11 27t27 11zM891 -127q16 0 27 -11t11 -27
q0 -15 -11 -26.5t-27 -11.5q-15 0 -26.5 11.5t-11.5 26.5q0 16 11.5 27t26.5 11z" />
    <glyph glyph-name="uniE052" unicode="&#xfbff;&#xfe8a;" horiz-adv-x="983" 
d="M112 322q-23 28 -23 71q0 34 22.5 57t56.5 23q24 0 49 -9v-30q-20 7 -38 7q-56 0 -56 -58q0 -23 15 -41q19 -20 47 -20h64v-12l-16 -20h-164v32h43zM938 460v-377q0 -14 -6 -30h54v-53h-42l-23 31h-2q-26 -31 -62 -31h-141q0 -115 -65 -177q-66 -62 -187 -62h-120
q-112 0 -178 55q-74 62 -74 182v153l30 23h28v-177q0 -104 55 -144t200 -40q132 0 187 36q67 43 67 151h-86l-23 28v25h283q47 0 47 47v360h58zM801 -127q16 0 27 -11t11 -27q0 -15 -11 -26.5t-27 -11.5q-15 0 -26 11.5t-11 26.5q0 16 11 27t26 11zM900 -127q15 0 26.5 -11
t11.5 -27q0 -15 -11.5 -26.5t-26.5 -11.5q-16 0 -27 11.5t-11 26.5q0 16 11 27t27 11z" />
    <glyph glyph-name="uniFC3D" unicode="&#xfb90;&#xfef0;" horiz-adv-x="1040" arabic-form="isolated" 
d="M890 732v-51l-267 -153q159 -27 267 -160q95 -116 95 -254q0 -114 -84 -114h-208q0 -115 -66 -177t-186 -62h-120q-113 0 -178 55q-74 62 -74 182v153l29 23h29v-177q0 -104 55 -144t199 -40q132 0 188 36q66 43 66 151h-85l-23 28v25h351q50 0 50 66q0 141 -116 253
q-98 94 -221 108q-4 1 -4 6v72z" />
    <glyph glyph-name="uniFC3E" unicode="&#xfb90;&#xfef2;" horiz-adv-x="1040" arabic-form="isolated" 
d="M890 732v-51l-267 -153q159 -27 267 -160q95 -116 95 -254q0 -114 -84 -114h-208q0 -115 -66 -177t-186 -62h-120q-113 0 -178 55q-74 62 -74 182v153l29 23h29v-177q0 -104 55 -144t199 -40q132 0 188 36q66 43 66 151h-85l-23 28v25h351q50 0 50 66q0 141 -116 253
q-98 94 -221 108q-4 1 -4 6v72zM329 -297q16 0 27 -11.5t11 -26.5q0 -16 -11 -27t-27 -11q-15 0 -26.5 11t-11.5 27q0 15 11.5 26.5t26.5 11.5zM428 -297q15 0 26 -11.5t11 -26.5q0 -16 -11 -27t-26 -11q-16 0 -27 11t-11 27q0 15 11 26.5t27 11.5z" />
    <glyph glyph-name="uniFC59" unicode="&#xfbfe;&#xfbfd;" horiz-adv-x="983" arabic-form="isolated" 
d="M914 460v-377q0 -34 -26 -59q-23 -24 -55 -24h-140q0 -115 -66 -177t-186 -62h-120q-113 0 -178 55q-74 62 -74 182v153l29 23h29v-177q0 -104 55 -144t199 -40q132 0 188 36q66 43 66 151h-85l-23 28v25h282q47 0 47 47v360h58zM769 -127q16 0 27 -11t11 -27
q0 -15 -11 -26.5t-27 -11.5q-15 0 -26.5 11.5t-11.5 26.5q0 16 11.5 27t26.5 11zM868 -127q15 0 26 -11t11 -27q0 -15 -11 -26.5t-26 -11.5q-16 0 -27 11.5t-11 26.5q0 16 11 27t27 11z" />
    <glyph glyph-name="uniFC5A" unicode="&#xfef3;&#xfef2;" horiz-adv-x="960" arabic-form="isolated" 
d="M914 460v-377q0 -34 -26 -59q-23 -24 -55 -24h-140q0 -115 -66 -177t-186 -62h-120q-113 0 -178 55q-74 62 -74 182v153l29 23h29v-177q0 -104 55 -144t199 -40q132 0 188 36q66 43 66 151h-85l-23 28v25h282q47 0 47 47v360h58zM769 -127q16 0 27 -11t11 -27
q0 -15 -11 -26.5t-27 -11.5q-15 0 -26.5 11.5t-11.5 26.5q0 16 11.5 27t26.5 11zM868 -127q15 0 26 -11t11 -27q0 -15 -11 -26.5t-26 -11.5q-16 0 -27 11.5t-11 26.5q0 16 11 27t27 11zM329 -297q16 0 27 -11.5t11 -26.5q0 -16 -11 -27t-27 -11q-15 0 -26.5 11t-11.5 27
q0 15 11.5 26.5t26.5 11.5zM428 -297q15 0 26 -11.5t11 -26.5q0 -16 -11 -27t-26 -11q-16 0 -27 11t-11 27q0 15 11 26.5t27 11.5z" />
    <glyph glyph-name="uniFC83" unicode="&#xfb91;&#xfef0;" horiz-adv-x="1006" arabic-form="final" 
d="M890 732v-51l-267 -153q159 -27 267 -160q95 -116 95 -254q0 -39 -9 -61h33v-53h-19l-23 31h-2q-24 -31 -64 -31h-208q0 -115 -66 -177t-186 -62h-120q-113 0 -178 55q-74 62 -74 182v153l29 23h29v-177q0 -104 55 -144t199 -40q132 0 188 36q66 43 66 151h-85l-23 28v25
h351q50 0 50 66q0 141 -116 253q-98 94 -221 108q-4 1 -4 6v72z" />
    <glyph glyph-name="uniFC84" unicode="&#xfb91;&#xfef2;" horiz-adv-x="1006" arabic-form="final" 
d="M890 732v-51l-267 -153q159 -27 267 -160q95 -116 95 -254q0 -40 -9 -61h33v-53h-19l-23 31h-2q-24 -31 -64 -31h-208q0 -115 -66 -177t-186 -62h-120q-113 0 -178 55q-74 62 -74 182v153l29 23h29v-177q0 -104 55 -144t199 -40q132 0 188 36q66 43 66 151h-85l-23 28v25
h351q50 0 50 66q0 141 -116 253q-98 94 -221 108q-4 1 -4 6v72zM329 -297q16 0 27 -11.5t11 -26.5q0 -16 -11 -27t-27 -11q-15 0 -26.5 11t-11.5 27q0 15 11.5 26.5t26.5 11.5zM428 -297q15 0 26 -11.5t11 -26.5q0 -16 -11 -27t-26 -11q-16 0 -27 11t-11 27q0 15 11 26.5
t27 11.5z" />
    <glyph glyph-name="uniFC95" unicode="&#xfbff;&#xfbfd;" horiz-adv-x="959" arabic-form="final" 
d="M914 460v-377q0 -15 -6 -30h55v-53h-43l-22 31h-3q-26 -31 -62 -31h-140q0 -115 -66 -177t-186 -62h-120q-113 0 -178 55q-74 62 -74 182v153l29 23h29v-177q0 -104 55 -144t199 -40q132 0 188 36q66 43 66 151h-85l-23 28v25h283q47 0 47 47v360h57zM778 -127
q15 0 26.5 -11t11.5 -27q0 -15 -11.5 -26.5t-26.5 -11.5q-16 0 -27 11.5t-11 26.5q0 16 11 27t27 11zM876 -127q16 0 27 -11t11 -27q0 -15 -11 -26.5t-27 -11.5q-15 0 -26 11.5t-11 26.5q0 16 11 27t26 11z" />
    <glyph glyph-name="uniFC96" unicode="&#xfef4;&#xfef2;" horiz-adv-x="959" arabic-form="final" 
d="M914 460v-377q0 -15 -6 -30h55v-53h-43l-22 31h-3q-26 -31 -62 -31h-140q0 -115 -66 -177t-186 -62h-120q-113 0 -178 55q-74 62 -74 182v153l29 23h29v-177q0 -104 55 -144t199 -40q132 0 188 36q66 43 66 151h-85l-23 28v25h283q47 0 47 47v360h57zM778 -127
q15 0 26.5 -11t11.5 -27q0 -15 -11.5 -26.5t-26.5 -11.5q-16 0 -27 11.5t-11 26.5q0 16 11 27t27 11zM876 -127q16 0 27 -11t11 -27q0 -15 -11 -26.5t-27 -11.5q-15 0 -26 11.5t-11 26.5q0 16 11 27t26 11zM329 -297q16 0 27 -11.5t11 -26.5q0 -16 -11 -27t-27 -11
q-15 0 -26.5 11t-11.5 27q0 15 11.5 26.5t26.5 11.5zM428 -297q15 0 26 -11.5t11 -26.5q0 -16 -11 -27t-26 -11q-16 0 -27 11t-11 27q0 15 11 26.5t27 11.5z" />
    <glyph glyph-name="uniFDF2" unicode="&#x627;&#xfedf;&#xfee0;&#x650;&#xfeea;" horiz-adv-x="1247" arabic-form="isolated" 
d="M710 1082v-195l-18 -14h-17v209h35zM804 835v-105q0 -19 -12 -32t-34 -13h-42l-11 11h-1q-2 -3 -6 -6q-9 -5 -17 -5h-54q-19 0 -33 12q-13 13 -13 33v65l18 15h17v-77q0 -6 3 -10q6 -7 15 -7h25q7 0 11 5q5 4 5 11v78h35v-94h41q9 0 13 6q5 4 5 11v102h35zM1178 762v-763
l-29 -24h-28v787h57zM984 613v-530q0 -34 -25 -59q-24 -24 -56 -24h-172l-22 31h-3q-11 -13 -25 -21q-18 -10 -37 -10h-155q-41 0 -68 35q-74 -47 -150 -47q-105 0 -166 78q-50 64 -50 157q0 116 73 193q67 71 164 71q60 0 116 -28l30 24h29v-383q0 -21 12 -33
q14 -14 33 -14h109q24 0 36 14q11 12 11 33v513h57v-530q0 -14 -6 -30h161q22 0 34 11q13 13 13 36v513h57zM408 406q-52 26 -104 26q-90 0 -145 -71q-45 -59 -45 -140q0 -78 50 -131q45 -48 112 -48q59 0 133 40z" />
    <glyph glyph-name="uniFDFC" unicode="&#x631;&#xfef3;&#xfe8e;&#x644;" horiz-adv-x="1576" arabic-form="isolated" 
d="M693 716v-718q0 -113 -66 -175t-186 -62h-120q-113 0 -178 55q-74 62 -74 182v231l29 24h29v-256q0 -104 55 -144t199 -40q131 0 186 35q68 43 68 149v719h58zM911 716v-616q0 -22 12 -34q12 -13 35 -13h132q22 0 34 11q13 13 13 36v360h58v-377q0 -34 -26 -59
q-23 -24 -56 -24h-178q-32 0 -55 24q-26 25 -26 59v633h57zM1507 460v-462q-1 -125 -82 -186q-66 -50 -176 -50q-21 0 -40 1l-28 36v17q26 -2 52 -2q111 0 163 42q54 44 54 138v466h57zM975 -127q15 0 26.5 -11t11.5 -27q0 -15 -11.5 -26.5t-26.5 -11.5q-16 0 -27 11.5
t-11 26.5q0 16 11 27t27 11zM1073 -127q16 0 27 -11t11 -27q0 -15 -11 -26.5t-27 -11.5q-15 0 -26 11.5t-11 26.5q0 16 11 27t26 11z" />
    <glyph glyph-name="uniFEF5" unicode="&#xfedf;&#xfe82;" horiz-adv-x="669" arabic-form="isolated" 
d="M42 679q35 55 79 55q24 0 61 -19q13 -6 21 -9q23 -10 44 -10q31 0 51 24l18 -12q-42 -53 -80 -53q-20 0 -44 10l-27 12q-32 16 -49 16q-25 0 -57 -27zM600 716v-633q0 -34 -26 -59q-21 -22 -51 -24h-464l-24 29v24h288l-178 540h62l177 -540h112q22 0 34 11q13 13 13 36
v616h57z" />
    <glyph glyph-name="uniFEF6" unicode="&#xfee0;&#xfe82;" horiz-adv-x="645" arabic-form="final" 
d="M42 679q35 55 79 55q24 0 61 -19q13 -6 21 -9q23 -10 44 -10q31 0 51 24l18 -12q-42 -53 -80 -53q-20 0 -44 10l-27 12q-32 16 -49 16q-25 0 -57 -27zM600 716v-633q0 -15 -6 -30h55v-53h-43l-22 31h-3q-10 -12 -23 -20q-16 -10 -35 -11h-464l-24 29v24h288l-178 540h62
l177 -540h112q24 0 36 14q11 12 11 33v616h57z" />
    <glyph glyph-name="uniFEF7" unicode="&#xfedf;&#xfe84;" horiz-adv-x="669" arabic-form="isolated" 
d="M114 688q-24 28 -24 71q0 34 23 57t56 23q24 0 49 -9v-30q-20 7 -37 7q-57 0 -57 -58q0 -23 15 -41q19 -20 48 -20h64v-11l-17 -21h-164v32h44zM600 716v-633q0 -34 -26 -59q-21 -22 -51 -24h-464l-24 29v24h288l-178 540h62l177 -540h112q22 0 34 11q13 13 13 36v616h57
z" />
    <glyph glyph-name="uniFEF8" unicode="&#xfee0;&#xfe84;" horiz-adv-x="645" arabic-form="final" 
d="M114 688q-24 28 -24 71q0 34 23 57t56 23q24 0 49 -9v-30q-20 7 -37 7q-57 0 -57 -58q0 -23 15 -41q19 -20 48 -20h64v-11l-17 -21h-164v32h44zM600 716v-633q0 -15 -6 -30h55v-53h-43l-22 31h-3q-10 -12 -23 -20q-16 -10 -35 -11h-464l-24 29v24h288l-178 540h62
l177 -540h112q24 0 36 14q11 12 11 33v616h57z" />
    <glyph glyph-name="uniFEF9" unicode="&#xfedf;&#xfe88;" horiz-adv-x="669" arabic-form="isolated" 
d="M600 716v-633q0 -34 -26 -59q-20 -22 -51 -24h-464l-24 29v24h288l-178 540h62l177 -540h112q22 0 34 11q13 13 13 36v616h57zM357 -269q-23 28 -23 71q0 34 22.5 57t56.5 23q23 0 49 -9v-30q-20 7 -38 7q-56 0 -56 -58q0 -23 15 -41q19 -20 47 -20h64v-11l-16 -21h-164
v32h43z" />
    <glyph glyph-name="uniFEFA" unicode="&#xfee0;&#xfe88;" horiz-adv-x="645" arabic-form="final" 
d="M600 716v-633q0 -14 -6 -30h55v-53h-43l-22 31h-3q-10 -12 -23 -20q-16 -10 -35 -11h-464l-24 29v24h288l-178 540h62l177 -540h112q24 0 36 14q11 12 11 33v616h57zM357 -269q-23 28 -23 71q0 34 22.5 57t56.5 23q23 0 49 -9v-30q-20 7 -38 7q-56 0 -56 -58
q0 -23 15 -41q19 -20 47 -20h64v-11l-16 -21h-164v32h43z" />
    <glyph glyph-name="uniFEFB" unicode="&#xfedf;&#xfe8e;" horiz-adv-x="669" arabic-form="isolated" 
d="M600 716v-633q0 -34 -26 -59q-21 -22 -51 -24h-464l-24 29v24h288l-178 540h62l177 -540h112q22 0 34 11q13 13 13 36v616h57z" />
    <glyph glyph-name="uniFEFC" unicode="&#xfee0;&#xfe8e;" horiz-adv-x="645" arabic-form="final" 
d="M600 716v-633q0 -15 -6 -30h55v-53h-43l-22 31h-3q-10 -12 -23 -20q-16 -10 -35 -11h-464l-24 29v24h288l-178 540h62l177 -540h112q24 0 36 14q11 12 11 33v616h57z" />
    <glyph glyph-name="uniE019" unicode="&#x66e;" horiz-adv-x="281" 
d="M235 460v-377q0 -14 -6 -30h55v-53h-43l-22 31h-3q-26 -31 -62 -31h-158v53h135q24 0 36 14q11 12 11 33v360h57z" />
    <glyph glyph-name="uniE018" unicode="&#x66e;" horiz-adv-x="915" 
d="M870 460v-377q0 -14 -6 -30h55v-53h-43l-23 31h-2q-27 -31 -63 -31h-576q-56 0 -98 42q-45 46 -45 111v211l29 24h29v-230q0 -44 25 -71q30 -34 84 -34h529q24 0 36 13q11 12 11 34v360h58z" />
    <glyph glyph-name="uniE036" unicode="&#x66f;" horiz-adv-x="721" 
d="M505 0q-110 0 -169 65q-56 63 -56 173q0 112 60 173q59 61 167 61q82 0 130 -42q56 -47 56 -137v-240h32v-53h-32q0 -115 -66 -177t-186 -62h-120q-113 0 -178 55q-74 62 -74 182v163l29 24h29v-188q0 -104 55 -144t199 -40q132 0 188 36q66 43 66 151h-130zM635 292
q0 60 -32 93q-35 34 -95 34q-87 0 -131 -52q-39 -47 -39 -129q0 -61 22 -106q40 -79 131 -79h144v239z" />
    <glyph glyph-name="uniE035" unicode="&#x6a1;" horiz-adv-x="618" 
d="M219 53q-36 34 -53 81q-16 47 -16 106q0 105 58 167q62 65 169 65q81 0 129 -42q56 -47 56 -137v-210q0 -34 -26 -59q-23 -24 -55 -24h-485v53h223zM505 292q0 60 -33 93q-34 34 -95 34q-86 0 -128 -52q-41 -51 -41 -141q0 -77 40 -124q42 -49 113 -49h97q47 0 47 47v192
z" />
    <glyph glyph-name="uniE034" unicode="&#x6a1;" horiz-adv-x="593" 
d="M227 53q-75 75 -75 184q0 114 64 178q56 57 145 57q85 0 141 -53q69 -65 69 -182q0 -108 -76 -184h101v-53h-139h-16h-13q-46 0 -66 5h-2q-20 -5 -67 -5h-15h-14h-268v53h231zM361 419q-80 0 -120 -60q-32 -47 -32 -121q0 -79 44 -132q42 -50 108 -54q75 5 118 69
q34 51 34 117q0 89 -44 137q-40 44 -108 44z" />
    <glyph glyph-name="uniE033" unicode="&#x6a1;" horiz-adv-x="938" 
d="M572 53q-75 75 -75 184q0 114 64 178q56 57 146 57q85 0 141 -53q68 -65 68 -182q0 -108 -76 -184h102v-53h-139h-16h-14q-46 0 -65 5h-3q-19 -5 -66 -5h-15h-15h-397q-56 0 -98 42q-45 46 -45 111v211l29 24h29v-230q0 -44 25 -71q30 -34 84 -34h336zM859 242
q0 82 -43 131q-40 46 -109 46q-80 0 -121 -60q-31 -46 -31 -121q0 -79 44 -132q41 -50 108 -54q74 5 117 71q35 52 35 119z" />
    <glyph glyph-name="uniFB51" unicode="&#x671;" horiz-adv-x="174" arabic-form="final" 
d="M52 853q52 82 118 82q30 0 50 -18.5t20 -45.5q0 -35 -28.5 -56.5t-74.5 -21.5q-39 0 -95 19q-38 12 -48 12q-26 0 -58 -27l-17 13q35 55 78 55q19 0 55 -12zM81 841q45 -14 72 -14q24 0 40 11.5t16 29.5q0 34 -38 34q-47 0 -90 -61zM127 716v-616q0 -22 12 -34
q12 -13 35 -13h5v-53h-28q-32 0 -56 24q-25 25 -25 59v633h57z" />
    <glyph glyph-name="uniFB57" unicode="&#x67e;" horiz-adv-x="915" arabic-form="final" 
d="M870 460v-377q0 -14 -6 -30h55v-53h-43l-23 31h-2q-27 -31 -63 -31h-576q-56 0 -98 42q-45 46 -45 111v211l29 24h29v-230q0 -44 25 -71q30 -34 84 -34h529q24 0 36 13q11 12 11 34v360h58zM420 -127q15 0 26.5 -11t11.5 -27q0 -15 -11.5 -26.5t-26.5 -11.5
q-16 0 -27 11.5t-11 26.5q0 16 11 27t27 11zM519 -127q15 0 26 -11t11 -27q0 -15 -11 -26.5t-26 -11.5q-16 0 -27 11.5t-11 26.5q0 16 11 27t27 11zM469 -206q16 0 27 -11t11 -27q0 -15 -11 -26t-27 -11q-15 0 -26 11t-11 26q0 16 11 27t26 11z" />
    <glyph glyph-name="uniFB58" unicode="&#x67e;" horiz-adv-x="305" arabic-form="initial" 
d="M235 460v-377q0 -34 -26 -59q-23 -24 -55 -24h-158v53h134q22 0 34 11q13 13 13 36v360h58zM99 -203q-16 0 -27 11.5t-11 26.5q0 16 11 27t27 11q15 0 26 -11t11 -27q0 -15 -11 -26.5t-26 -11.5zM198 -203q-16 0 -27 11.5t-11 26.5q0 16 11 27t27 11q15 0 26 -11t11 -27
q0 -15 -11 -26.5t-26 -11.5zM148 -281q-15 0 -26 11t-11 26q0 16 11 27t26 11q16 0 27 -11t11 -27q0 -15 -11 -26t-27 -11z" />
    <glyph glyph-name="uniFB59" unicode="&#x67e;" horiz-adv-x="281" arabic-form="medial" 
d="M235 460v-377q0 -14 -6 -30h55v-53h-43l-22 31h-3q-26 -31 -62 -31h-158v53h135q24 0 36 14q11 12 11 33v360h57zM99 -203q-16 0 -27 11.5t-11 26.5q0 16 11 27t27 11q15 0 26 -11t11 -27q0 -15 -11 -26.5t-26 -11.5zM198 -203q-16 0 -27 11.5t-11 26.5q0 16 11 27t27 11
q15 0 26 -11t11 -27q0 -15 -11 -26.5t-26 -11.5zM148 -281q-15 0 -26 11t-11 26q0 16 11 27t26 11q16 0 27 -11t11 -27q0 -15 -11 -26t-27 -11z" />
    <glyph glyph-name="uniFB67" unicode="&#x679;" horiz-adv-x="915" arabic-form="final" 
d="M416 576l-2 -96q49 77 122 77q34 0 54 -23t20 -61v-28q0 -21 -10 -35q-16 -22 -46 -22h-193v32h26v156h29zM575 469q0 31 -15 43q-11 10 -30 10q-29 -1 -64 -29q-34 -30 -52 -73h138q23 0 23 24v25zM870 460v-377q0 -14 -6 -30h55v-53h-43l-23 31h-2q-27 -31 -63 -31
h-576q-56 0 -98 42q-45 46 -45 111v211l29 24h29v-230q0 -44 25 -71q30 -34 84 -34h529q24 0 36 13q11 12 11 34v360h58z" />
    <glyph glyph-name="uniFB68" unicode="&#x679;" horiz-adv-x="304" arabic-form="initial" 
d="M53 795v-96q48 76 121 76q35 0 55 -22.5t20 -61.5v-28q0 -20 -10 -35q-16 -21 -46 -21h-193v31h25v157h28zM214 688q0 30 -15 43q-12 9 -30 9q-29 -1 -64 -28q-34 -30 -52 -74h138q23 0 23 24v26zM235 460v-377q0 -34 -26 -59q-23 -24 -55 -24h-158v53h134q22 0 34 11
q13 13 13 36v360h58z" />
    <glyph glyph-name="uniFB69" unicode="&#x679;" horiz-adv-x="281" arabic-form="medial" 
d="M53 795v-96q48 76 121 76q35 0 55 -22.5t20 -61.5v-28q0 -20 -10 -35q-16 -21 -46 -21h-193v31h25v157h28zM214 688q0 30 -15 43q-12 9 -30 9q-29 -1 -64 -28q-34 -30 -52 -74h138q23 0 23 24v26zM235 460v-377q0 -14 -6 -30h55v-53h-43l-22 31h-3q-26 -31 -62 -31h-158
v53h135q24 0 36 14q11 12 11 33v360h57z" />
    <glyph glyph-name="uniFB6B" unicode="&#x6a4;" horiz-adv-x="938" arabic-form="final" 
d="M716 758q15 0 26 -11t11 -26q0 -16 -11 -27t-26 -11q-16 0 -27 11t-11 27q0 15 11 26t27 11zM666 680q16 0 27 -11t11 -27q0 -15 -11 -26.5t-27 -11.5t-27 11.5t-11 26.5q0 16 11 27t27 11zM765 680q16 0 27 -11t11 -27q0 -15 -11 -26.5t-27 -11.5t-27 11.5t-11 26.5
q0 16 11 27t27 11zM572 53q-75 75 -75 184q0 114 64 178q56 57 146 57q85 0 141 -53q68 -65 68 -182q0 -108 -76 -184h102v-53h-139h-16h-14q-46 0 -65 5h-3q-19 -5 -66 -5h-15h-15h-397q-56 0 -98 42q-45 46 -45 111v211l29 24h29v-230q0 -44 25 -71q30 -34 84 -34h336z
M859 242q0 82 -43 131q-40 46 -109 46q-80 0 -121 -60q-31 -46 -31 -121q0 -79 44 -132q41 -50 108 -54q74 5 117 71q35 52 35 119z" />
    <glyph glyph-name="uniFB6C" unicode="&#x6a4;" horiz-adv-x="618" arabic-form="initial" 
d="M386 758q15 0 26 -11t11 -26q0 -16 -11 -27t-26 -11q-16 0 -27 11t-11 27q0 15 11 26t27 11zM336 680q16 0 27 -11t11 -27q0 -15 -11 -26.5t-27 -11.5q-15 0 -26.5 11.5t-11.5 26.5q0 16 11.5 27t26.5 11zM435 680q16 0 27 -11t11 -27q0 -15 -11 -26.5t-27 -11.5
q-15 0 -26.5 11.5t-11.5 26.5q0 16 11.5 27t26.5 11zM219 53q-36 34 -53 81q-16 47 -16 106q0 105 58 167q62 65 169 65q81 0 129 -42q56 -47 56 -137v-210q0 -34 -26 -59q-23 -24 -55 -24h-485v53h223zM505 292q0 60 -33 93q-34 34 -95 34q-86 0 -128 -52q-41 -51 -41 -141
q0 -77 40 -124q42 -49 113 -49h97q47 0 47 47v192z" />
    <glyph glyph-name="uniFB6D" unicode="&#x6a4;" horiz-adv-x="593" arabic-form="medial" 
d="M370 758q15 0 26.5 -11t11.5 -26q0 -16 -11 -27t-27 -11q-15 0 -26.5 11t-11.5 27q0 15 11.5 26t26.5 11zM321 680q15 0 26 -11t11 -27q0 -15 -11 -26.5t-26 -11.5q-16 0 -27 11.5t-11 26.5q0 16 11 27t27 11zM419 680q16 0 27 -11t11 -27q0 -15 -11 -26.5t-27 -11.5
q-15 0 -26 11.5t-11 26.5q0 16 11 27t26 11zM227 53q-75 75 -75 184q0 114 64 178q56 57 145 57q85 0 141 -53q69 -65 69 -182q0 -108 -76 -184h101v-53h-139h-16h-13q-46 0 -66 5h-2q-20 -5 -67 -5h-15h-14h-268v53h231zM361 419q-80 0 -120 -60q-32 -47 -32 -121
q0 -79 44 -132q42 -50 108 -54q75 5 118 69q34 51 34 117q0 89 -44 137q-40 44 -108 44z" />
    <glyph glyph-name="uniFB7B" unicode="&#x686;" horiz-adv-x="616" arabic-form="final" 
d="M179 445q88 28 160 28q123 0 183 -80q49 -65 49 -173v-137q0 -14 -6 -30h54v-53h-42l-23 31h-1q-7 -9 -19 -17q-21 -14 -44 -14h-206q-83 0 -129 -42q-42 -39 -42 -109q0 -85 55 -134q48 -42 122 -42q12 0 23 2v-16l-26 -32q-7 -1 -15 -1q-103 0 -164 69q-53 60 -53 149
q0 99 62 153q63 56 181 56h169q46 0 46 47v132q0 190 -189 190q-67 0 -145 -23v46zM296 -127q15 0 26 -11t11 -27q0 -15 -11 -26.5t-26 -11.5q-16 0 -27 11.5t-11 26.5q0 16 11 27t27 11zM395 -127q15 0 26 -11t11 -27q0 -15 -11 -26.5t-26 -11.5q-16 0 -27 11.5t-11 26.5
q0 16 11 27t27 11zM345 -206q15 0 26.5 -11t11.5 -26q0 -16 -11 -27t-27 -11q-15 0 -26 11t-11 27q0 15 11 26t26 11z" />
    <glyph glyph-name="uniFB7C" unicode="&#x686;" horiz-adv-x="577" arabic-form="initial" 
d="M129 445q89 28 161 28q107 0 173 -69q59 -61 59 -153v-168q0 -37 -29 -63q-24 -20 -52 -20h-445v53h421q47 0 47 47v132q0 190 -189 190q-68 0 -146 -23v46zM199 -127q15 0 26 -11t11 -27q0 -15 -11 -26.5t-26 -11.5q-16 0 -27 11.5t-11 26.5q0 16 11 27t27 11zM298 -127
q15 0 26 -11t11 -27q0 -15 -11 -26.5t-26 -11.5q-16 0 -27 11.5t-11 26.5q0 16 11 27t27 11zM248 -206q16 0 27 -11t11 -27q0 -15 -11.5 -26t-26.5 -11t-26 11t-11 26q0 16 11 27t26 11z" />
    <glyph glyph-name="uniFB7D" unicode="&#x686;" horiz-adv-x="551" arabic-form="medial" 
d="M129 445q89 28 161 28q107 0 173 -69q59 -61 59 -153v-168q0 -14 -6 -30h38v-53h-26l-23 31h-2q-27 -31 -62 -31h-445v53h421q47 0 47 47v132q0 190 -189 190q-68 0 -146 -23v46zM199 -127q15 0 26 -11t11 -27q0 -15 -11 -26.5t-26 -11.5q-16 0 -27 11.5t-11 26.5
q0 16 11 27t27 11zM298 -127q15 0 26 -11t11 -27q0 -15 -11 -26.5t-26 -11.5q-16 0 -27 11.5t-11 26.5q0 16 11 27t27 11zM248 -206q16 0 27 -11t11 -27q0 -15 -11.5 -26t-26.5 -11t-26 11t-11 26q0 16 11 27t26 11z" />
    <glyph glyph-name="uniFB89" unicode="&#x688;" horiz-adv-x="494" arabic-form="final" 
d="M169 795l-2 -96q49 76 122 76q34 0 54.5 -22.5t20.5 -61.5v-28q0 -20 -11 -35q-16 -21 -46 -21h-193v31h26v157h29zM329 688q0 30 -16 43q-11 9 -30 9q-29 -1 -64 -28q-33 -30 -52 -74h138q24 0 24 24v26zM140 466q40 7 80 7q104 0 170 -64q60 -59 60 -150v-176
q0 -15 -6 -30h54v-53h-43l-22 31h-2q-3 -2 -7 -7q-23 -24 -55 -24h-330v53h306q47 0 47 47v147q0 93 -65 140q-52 39 -135 39q-28 0 -52 -4v44z" />
    <glyph glyph-name="uniFB8B" unicode="&#x698;" horiz-adv-x="362" arabic-form="final" 
d="M239 758q15 0 26 -11t11 -26q0 -16 -11 -27t-26 -11q-16 0 -27 11t-11 27q0 15 11 26t27 11zM189 680q16 0 27 -11t11 -27q0 -15 -11 -26.5t-27 -11.5q-15 0 -26.5 11.5t-11.5 26.5q0 16 11.5 27t26.5 11zM288 680q16 0 27 -11t11 -27q0 -15 -11 -26.5t-27 -11.5
q-15 0 -26.5 11.5t-11.5 26.5q0 16 11.5 27t26.5 11zM314 460v-407h51v-53h-51q0 -126 -81 -188q-66 -50 -176 -50q-22 0 -40 1l-29 36v17q27 -2 52 -2q111 0 163 42q54 44 54 138v466h57z" />
    <glyph glyph-name="uniFB8D" unicode="&#x691;" horiz-adv-x="362" arabic-form="final" 
d="M130 792v-96q48 77 121 77q34 0 54.5 -23t20.5 -61v-28q0 -20 -11 -35q-15 -22 -46 -22h-193v32h26v156h28zM291 685q0 31 -16 44q-11 9 -29 9q-30 -1 -64 -29q-34 -29 -52 -73h137q24 0 24 24v25zM314 460v-407h51v-53h-51q0 -126 -81 -188q-66 -50 -176 -50
q-22 0 -40 1l-29 36v17q27 -2 52 -2q111 0 163 42q54 44 54 138v466h57z" />
    <glyph glyph-name="uniFB8F" unicode="&#x6a9;" horiz-adv-x="891" arabic-form="final" 
d="M776 732v-51l-267 -153q158 -27 266 -160q95 -116 95 -254q0 -41 -8 -61h32v-53h-19l-23 31h-2q-24 -31 -63 -31h-575q-56 0 -98 42q-45 46 -45 111v211l29 24h29v-230q0 -44 25 -71q30 -34 84 -34h527q50 0 50 66q0 141 -116 253q-97 94 -220 108q-5 1 -5 6v72z" />
    <glyph glyph-name="uniFB90" unicode="&#x6a9;" horiz-adv-x="572" arabic-form="initial" 
d="M421 732v-51l-267 -153q159 -27 267 -160q95 -116 95 -254q0 -114 -84 -114h-436v53h413q50 0 50 66q0 141 -116 253q-98 94 -220 108q-5 1 -5 6v72z" />
    <glyph glyph-name="uniFB91" unicode="&#x6a9;" horiz-adv-x="537" arabic-form="medial" 
d="M421 732v-51l-267 -153q159 -27 267 -160q95 -116 95 -254q0 -41 -9 -61h33v-53h-20l-22 31h-3q-23 -31 -63 -31h-436v53h413q50 0 50 66q0 141 -116 253q-98 94 -220 108q-5 1 -5 6v72z" />
    <glyph glyph-name="uniFB93" unicode="&#x6af;" horiz-adv-x="891" arabic-form="final" 
d="M472 649l304 175v-42l-304 -176v43zM776 732v-51l-267 -153q158 -27 266 -160q95 -116 95 -254q0 -41 -8 -61h32v-53h-19l-23 31h-2q-24 -31 -63 -31h-575q-56 0 -98 42q-45 46 -45 111v211l29 24h29v-230q0 -44 25 -71q30 -34 84 -34h527q50 0 50 66q0 141 -116 253
q-97 94 -220 108q-5 1 -5 6v72z" />
    <glyph glyph-name="uniFB94" unicode="&#x6af;" horiz-adv-x="590" arabic-form="initial" 
d="M118 649l303 175v-42l-303 -176v43zM421 732v-51l-267 -153q159 -27 267 -160q95 -116 95 -254q0 -114 -84 -114h-436v53h413q50 0 50 66q0 141 -116 253q-98 94 -220 108q-5 1 -5 6v72z" />
    <glyph glyph-name="uniFB95" unicode="&#x6af;" horiz-adv-x="555" arabic-form="medial" 
d="M118 649l303 175v-42l-303 -176v43zM421 732v-51l-267 -153q159 -27 267 -160q95 -116 95 -254q0 -41 -9 -61h33v-53h-20l-22 31h-3q-23 -31 -63 -31h-436v53h413q50 0 50 66q0 141 -116 253q-98 94 -220 108q-5 1 -5 6v72z" />
    <glyph glyph-name="uniFB9F" unicode="&#x6ba;" horiz-adv-x="740" arabic-form="final" 
d="M693 460v-407h50v-53h-50q0 -115 -66 -177t-186 -62h-120q-113 0 -178 55q-74 62 -74 182v231l29 24h29v-256q0 -104 55 -144t199 -40q131 0 186 35q68 43 68 149v463h58z" />
    <glyph glyph-name="uniFBA5" unicode="&#x6c0;" horiz-adv-x="510" arabic-form="final" 
d="M254 586q-24 28 -24 70q0 35 23 58t57 23q23 0 48 -9v-30q-20 7 -37 7q-57 0 -57 -59q0 -23 15 -40q20 -20 48 -20h64v-12l-17 -20h-163v32h43zM467 479v-379q0 -21 12 -33q14 -14 33 -14h1v-53h-24q-41 0 -68 35q-74 -47 -150 -47q-105 0 -166 78q-50 64 -50 157
q0 117 76 190q67 64 166 64q57 0 111 -23l30 25h29zM408 401q-50 26 -103 26q-89 0 -145 -68q-46 -57 -46 -136q0 -86 51 -137q45 -44 115 -44q55 0 129 40z" />
    <glyph glyph-name="uniFBA7" unicode="&#x6c1;" horiz-adv-x="722" arabic-form="final" 
d="M674 460v-360q0 -23 13 -36q12 -11 34 -11h5l-1 -53h-27q-32 0 -55 24q-26 25 -26 59v321q-90 -14 -146 -83q-78 -94 -78 -268v-53h-69q-139 0 -216 102q-62 82 -62 204q0 36 7 66h55q-3 -28 -3 -55q0 -127 62 -196q60 -68 169 -68q0 203 103 312q89 95 228 95h7z" />
    <glyph glyph-name="uniFBA8" unicode="&#x6c1;" horiz-adv-x="371" arabic-form="initial" 
d="M302 460v-377q0 -34 -26 -59q-23 -24 -55 -24h-62q-51 -62 -51 -109q0 -36 33 -36h68v-51h-59q-38 0 -61 23.5t-23 62.5q0 52 47 110h-117v53h202q22 0 34 11q13 13 13 36v360h57z" />
    <glyph glyph-name="uniFBA9" unicode="&#x6c1;" horiz-adv-x="477" arabic-form="medial" 
d="M480 53v-53h-38q-22 0 -34 -12q-13 -12 -13 -35v-301h-11q-160 0 -253 121q-75 97 -75 227h-60v53h117v-53q0 -110 61 -192q62 -84 163 -99v261q0 34 26 59q23 24 55 24h62z" />
    <glyph glyph-name="uniFBAB" unicode="&#x6be;" horiz-adv-x="767" arabic-form="final" 
d="M265 449q104 51 223 51q129 0 190 -75t61 -234v-108q0 -14 -6 -30h38v-53h-26l-23 31h-2q-7 -9 -17 -16q-22 -15 -45 -15h-235q-61 0 -81 4h-4q-19 -4 -83 -4h-176l-24 29v24h170q-21 22 -37 51q-27 53 -27 111q0 104 56 157q20 19 48 30v47zM681 177q0 170 -63 224
q-52 46 -140 46q-72 0 -154 -31q7 1 16 1q92 0 139 -64q39 -53 39 -136q0 -51 -23 -100q-16 -35 -43 -64h182q22 0 34 11q13 13 13 36v77zM338 58q72 9 106 74q21 38 21 81q0 83 -40 123q-32 35 -87 35t-87 -35q-37 -41 -37 -123q0 -43 18 -78q32 -68 106 -77z" />
    <glyph glyph-name="uniFBAC" unicode="&#x6be;" horiz-adv-x="773" arabic-form="initial" 
d="M245 449q104 51 221 51q147 0 207 -98q45 -74 45 -211v-108q0 -34 -26 -59q-23 -24 -55 -24h-235q-61 0 -81 4h-4q-19 -4 -83 -4h-238v53h209q-25 25 -42 59q-23 50 -23 103q0 104 56 157q21 19 49 30v47zM660 177q0 170 -62 224q-52 46 -141 46q-72 0 -154 -31q8 1 16 1
q93 0 140 -65q38 -52 38 -135q0 -51 -23 -100q-16 -35 -43 -64h182q22 0 34 11q13 13 13 36v77zM317 58q70 9 105 71q22 39 22 84q0 83 -40 123q-32 35 -87 35t-87 -35q-37 -41 -37 -123q0 -48 23 -87q34 -60 101 -68z" />
    <glyph glyph-name="uniFBAD" unicode="&#x6be;" horiz-adv-x="747" arabic-form="medial" 
d="M245 449q104 51 221 51q147 0 207 -98q45 -74 45 -211v-108q0 -14 -6 -30h38v-53h-26l-23 31h-2q-7 -9 -17 -16q-21 -15 -45 -15h-235q-61 0 -81 4h-4q-19 -4 -83 -4h-238v53h209q-22 22 -38 51q-27 53 -27 111q0 104 56 157q21 19 49 30v47zM660 177q0 170 -62 224
q-52 46 -141 46q-72 0 -154 -31q8 1 16 1q93 0 140 -65q38 -52 38 -135q0 -51 -23 -100q-16 -35 -43 -64h182q22 0 34 11q13 13 13 36v77zM317 58q55 7 91 50.5t36 104.5q0 83 -40 123q-32 35 -87 35t-87 -35q-37 -41 -37 -123q0 -62 34.5 -105t89.5 -50z" />
    <glyph glyph-name="uniFBAF" unicode="&#x6d2;" horiz-adv-x="670" arabic-form="final" 
d="M808 53v-53h-586q-38 0 -65 -15q-33 -21 -33 -60q0 -26 15 -42q19 -22 58 -22h463v-17l-29 -35h-434q-70 0 -104 40q-24 30 -24 76q0 63 47 98q42 30 106 30h586z" />
    <glyph glyph-name="uniFBB1" unicode="&#x6d3;" horiz-adv-x="666" arabic-form="final" 
d="M139 312q-24 28 -24 71q0 34 23 57t57 23q23 0 48 -9v-30q-19 7 -37 7q-57 0 -57 -58q0 -23 15 -41q20 -20 48 -20h64v-11l-17 -21h-163v32h43zM830 53v-53h-586q-38 0 -65 -15q-33 -21 -33 -60q0 -26 15 -42q19 -22 58 -22h463v-17l-29 -35h-434q-70 0 -104 40
q-24 30 -24 76q0 63 47 98q42 30 106 30h586z" />
    <glyph glyph-name="uniFBE8" unicode="&#x649;" horiz-adv-x="304" arabic-form="initial" 
d="M235 460v-377q0 -34 -26 -59q-23 -24 -55 -24h-158v53h134q22 0 34 11q13 13 13 36v360h58z" />
    <glyph glyph-name="uniFBE9" unicode="&#x649;" horiz-adv-x="281" arabic-form="medial" 
d="M235 460v-377q0 -14 -6 -30h55v-53h-43l-22 31h-3q-26 -31 -62 -31h-158v53h135q24 0 36 14q11 12 11 33v360h57z" />
    <glyph glyph-name="uniFBFC" unicode="&#x6cc;" horiz-adv-x="744" arabic-form="isolated" 
d="M127 -4q0 -100 52 -140.5t180 -40.5q123 0 166 11q80 21 107 87q10 26 10 54q0 59 -31 88t-118 50q-108 27 -146 60q-48 43 -48 130q0 85 48.5 131t139.5 46q58 0 119 -22v-44q-76 17 -117 17q-134 0 -134 -138q0 -52 29.5 -77.5t118.5 -51.5q102 -28 143 -63
q52 -45 52 -122q0 -114 -87 -169q-66 -41 -170 -41h-120q-112 0 -178 55q-74 61 -74 182v153l29 23h29v-178z" />
    <glyph glyph-name="uniFBFD" unicode="&#x6cc;" horiz-adv-x="683" arabic-form="final" 
d="M127 174v-177q0 -104 55 -144t199 -40q132 0 188 36q66 43 66 151h-85l-23 28v25h184v-53h-18q0 -115 -66 -177t-186 -62h-120q-113 0 -178 55q-74 62 -74 182v153l29 23h29z" />
    <glyph glyph-name="uniFBFE" unicode="&#x6cc;" horiz-adv-x="304" arabic-form="initial" 
d="M235 460v-377q0 -34 -26 -59q-23 -24 -55 -24h-158v53h134q22 0 34 11q13 13 13 36v360h58zM90 -127q16 0 27 -11t11 -27q0 -15 -11 -26.5t-27 -11.5q-15 0 -26 11.5t-11 26.5q0 16 11 27t26 11zM189 -127q15 0 26.5 -11t11.5 -27q0 -15 -11.5 -26.5t-26.5 -11.5
q-16 0 -27 11.5t-11 26.5q0 16 11 27t27 11z" />
    <glyph glyph-name="uniFBFF" unicode="&#x6cc;" horiz-adv-x="281" arabic-form="medial" 
d="M235 460v-377q0 -14 -6 -30h55v-53h-43l-22 31h-3q-26 -31 -62 -31h-158v53h135q24 0 36 14q11 12 11 33v360h57zM99 -127q16 0 27 -11t11 -27q0 -15 -11 -26.5t-27 -11.5q-15 0 -26.5 11.5t-11.5 26.5q0 16 11.5 27t26.5 11zM198 -127q15 0 26 -11t11 -27
q0 -15 -11 -26.5t-26 -11.5q-16 0 -27 11.5t-11 26.5q0 16 11 27t27 11z" />
    <glyph glyph-name="uniFDFA" unicode="&#xfdfa;" horiz-adv-x="618" arabic-form="isolated" 
d="M324 690q-2 -5 -8 -5t-6 12q0 8 3 12h2q-2 -4 -2 -7q0 -9 7 -9q4 0 4 7q0 3 -1 9l4 4q2 -7 2 -17q2 -2 4 -2q4 0 4 4q0 2 -1 6q-2 5 -2 7q0 4 2 5h1q0 -2 2 -7q3 -5 3 -12q0 -10 -10 -10q-5 0 -8 3zM218 659l-4 2q34 15 41 27q-13 7 -13 13q0 14 17 14q8 0 8 -10
q0 -7 -3 -14l6 -2l-2 -6q-3 1 -7 2q-1 1 -2 1q-11 -15 -41 -27zM501 243q23 4 67 27q1 0 2 1l3 -3l-8 -34q-45 -29 -101 -29q-53 0 -68 31q-9 -29 -35 -29q-27 0 -34 27q-45 -47 -78 -47q-10 0 -21 3v-44q0 -35 40 -35q37 0 136 37q4 2 8 3q50 19 61 19q19 0 19 -23
q0 -27 -38 -55l-4 6q24 20 24 35q0 7 -7 7q-5 0 -13 -2q-16 -5 -60 -21q-92 -35 -128 -35q-25 0 -37 14q2 -28 11 -38q37 -17 37 -21q0 -7 -5.5 -15t-9.5 -8q-5 0 -16 6q-20 10 -36 10q-18 0 -55 -21q-39 -21 -57 -21q-20 0 -32.5 19.5t-12.5 50.5t17.5 56.5t44.5 34.5h2
l2 -4q-21 -8 -36.5 -33.5t-15.5 -52.5q0 -43 29 -43q24 0 65 23q34 19 51 22q-4 17 -4 48v88q-22 15 -37 48q-3 -2 -15 -21q-37 -62 -62 -62q-20 0 -32.5 20t-12.5 51q0 30 17.5 56t44.5 35h2l1 -5q-20 -7 -35.5 -33t-15.5 -53q0 -42 29 -42q22 0 43 31q2 4 10 18
q21 32 31 32q8 0 15 -16l1 -1q8 -18 16 -24v115l-56 -1q-99 0 -99 40q0 36 37 54q8 4 26 12q46 19 46 46l-1 187q0 13 18 29h2l1 -219q0 -33 26 -49v38q0 16 19 28h2v-75h5q8 -1 12 -1q71 0 140 31v24q0 14 20 28h1l1 -42q20 11 27 11q6 0 6 -6q0 -3 -3 -11q-1 -4 -1 -9
q0 -14 13 -21q32 75 74 75q19 0 33 -12.5t14 -29.5q0 -27 -29 -47.5t-68 -20.5q-15 0 -26 5q-3 -4 -8 -11l-4 -6h-3q1 11 5 23q-16 13 -20 39l-10 -6v-70l123 3q44 0 44 -27q0 -12 -10 -25l-4 1q0 22 -30 22l-123 -3v-68q0 -44 60 -44q-14 21 -14 41q0 23 15.5 40t35.5 17
q27 0 55 -23l-2 -9q-19 5 -35 5q-35 0 -50 -25q2 -24 28 -41zM452 515h-4l-5 169q-2 3 -2 6q0 13 10 23h3q20 -29 20 -58q0 -1 -1 -2h-1l-10 10l4 -112q0 -25 -14 -36zM247 702q3 -3 11 -7q1 4 1 7q0 5 -4 5q-3 0 -8 -5zM267 618q-3 -6 -8 -29q-12 -59 -29 -59q-25 0 -25 62
q0 19 3 34h1l2 -3q-1 -9 -1 -15q0 -52 20 -52q11 0 23 50q11 46 24 46q5 0 5 -11q0 -8 -2 -24q-3 -12 -3 -24q0 -36 18 -36q35 0 35 56q0 24 -4 44q2 13 14 23h2q7 -18 6 -75v-12q0 -37 25 -37q24 0 34 21q-1 13 -12 46q-13 37 -13 40q0 4 6 15q2 3 3 4h2l2 -2q1 -2 2 -2
q18 -23 19 -29l-1 -1l-8 3q2 -11 8 -29q7 -24 7 -37q0 -22 -13 -38.5t-32 -16.5q-34 0 -43 33q-11 -33 -37 -33q-33 0 -33 58q0 14 3 30zM251 460l7 12l20 8q57 21 96 29l-6 -12q-34 -5 -102 -32zM547 461q-6 24 -23 24q-30 0 -58 -49h12q45 0 69 25zM208 375v36
q-35 10 -44 45q-12 -19 -55 -34q-34 -12 -39 -24q9 -24 99 -24zM229 406v-31q32 0 102 3q33 1 55 1v58q-66 -31 -142 -31h-15zM346 250q8 -11 20 -11q27 0 24 58v10q0 21 -1 43l-161 -4v-127q10 -5 21 -5q34 0 77 48q6 6 10 6t8 -12q2 -4 2 -6zM252 269l6 11q6 3 21 8
q57 22 96 30l-7 -12q-32 -5 -94 -29q-14 -5 -22 -8zM126 309h3q-6 -17 -6 -29q0 -11 5 -11t7 7h1q0 -22 -14 -22q-9 0 -9 17q0 23 13 38zM340 175l14 14l21 -19l-21 -22l-14 15l-15 -15l-19 22l19 19zM552 85q-5 3 -21 5q-33 5 -33 26q0 19 12 34t27 15q35 0 35 -54
q0 -46 -34 -84.5t-74 -38.5q-20 0 -34 14t-14 35q0 32 26 54l3 -6q-14 -12 -14 -31q0 -37 34 -37q23 0 47.5 19t39.5 49zM554 116q-1 0 -3 5q-9 17 -19 17q-15 0 -15 -11q0 -5 18 -8q13 -2 19 -3zM124 96q-4 -3 -7 -3q-5 0 -5 9q0 10 9 10q6 0 13 -11q3 16 13 16q8 0 8 -7
q0 -3 -2 -8v-4h-1q-1 5 -4 6q-8 0 -10 -27l-2 -2q0 21 -12 21zM335 51v2q5 -2 11 -2q10 0 20 7q-12 6 -20 6q-3 0 -5 -1l-2 1q0 11 15 11q3 0 10 -2q8 -3 13 -4q6 0 6 -2q0 -7 -10 -14.5t-21 -7.5q-9 0 -17 6zM386 22l8 7q5 -6 5 -19q0 -11 -12 -11q-7 0 -11 6q-4 -6 -11 -6
t-10 6q-12 -7 -36 -7q-12 0 -27 2v2h11q44 0 55 17h2q0 -9 7 -9q8 0 8 11h2q0 -11 13 -11q-2 11 -4 12z" />
    <glyph glyph-name="uniFE82" unicode="&#x622;" horiz-adv-x="174" arabic-form="final" 
d="M-46 816q35 55 79 55q24 0 61 -18q13 -7 21 -10q23 -10 44 -10q31 0 51 24l18 -12q-42 -52 -80 -52q-20 0 -44 9l-26 13q-33 15 -49 15q-26 0 -58 -27zM127 716v-616q0 -22 11 -34q12 -13 36 -13h4v-53h-28q-32 0 -55 24q-26 25 -26 59v633h58z" />
    <glyph glyph-name="uniFE84" unicode="&#x623;" horiz-adv-x="179" arabic-form="final" 
d="M45 823q-23 28 -23 71q0 34 22.5 57t56.5 23q24 0 49 -9v-30q-20 7 -38 7q-56 0 -56 -58q0 -23 15 -41q19 -20 47 -20h64v-11l-16 -21h-164v32h43zM126 716v-616q0 -22 12 -34q12 -13 35 -13h5v-53h-28q-32 0 -55 24q-26 25 -26 59v633h57z" />
    <glyph glyph-name="uniFE86" unicode="&#x624;" horiz-adv-x="496" arabic-form="final" 
d="M240 586q-24 28 -24 70q0 35 22.5 58t56.5 23q24 0 49 -9v-30q-20 7 -38 7q-56 0 -56 -59q0 -23 15 -40q19 -20 48 -20h64v-12l-17 -20h-164v32h44zM280 0q-117 0 -175 72q-50 62 -50 166q0 112 59 173q60 61 168 61q81 0 130 -42q55 -47 55 -137v-240h33v-53h-33
q0 -126 -81 -188q-66 -50 -176 -50q-22 0 -40 1l-29 36v17q27 -2 52 -2q116 0 165 43q50 44 52 143h-130zM410 292q0 60 -33 93q-34 34 -95 34q-81 0 -125 -47t-44 -134q0 -86 40 -136q40 -49 113 -49h144v239z" />
    <glyph glyph-name="uniFE88" unicode="&#x625;" horiz-adv-x="174" arabic-form="final" 
d="M127 716v-616q0 -22 11 -34q13 -13 36 -13h4v-53h-28q-32 0 -55 24q-26 25 -26 59v633h58zM76 -269q-23 28 -23 71q0 34 22.5 57t56.5 23q24 0 49 -9v-30q-20 7 -38 7q-56 0 -56 -58q0 -23 15 -41q19 -20 47 -20h64v-11l-16 -21h-164v32h43z" />
    <glyph glyph-name="uniFE89" unicode="&#x626;" horiz-adv-x="771" arabic-form="isolated" 
d="M112 322q-23 28 -23 71q0 34 22.5 57t56.5 23q24 0 49 -9v-30q-20 7 -38 7q-56 0 -56 -58q0 -23 15 -41q19 -20 47 -20h64v-12l-16 -20h-164v32h43zM154 -4q0 -100 52.5 -140.5t180.5 -40.5q123 0 166 11q80 21 107 87q10 26 10 54q0 59 -31.5 88t-118.5 50
q-108 28 -145 60q-49 43 -49 130q0 85 49 131t139 46q59 0 120 -22v-44q-76 17 -117 17q-134 0 -134 -138q0 -53 29.5 -78t120.5 -51q100 -29 141 -64q51 -44 51 -121q0 -114 -86 -169q-67 -41 -170 -41h-121q-112 0 -178 55q-73 61 -73 182v153l29 23h28v-178z" />
    <glyph glyph-name="uniFE8A" unicode="&#x626;" horiz-adv-x="711" arabic-form="final" 
d="M112 322q-23 28 -23 71q0 34 22.5 57t56.5 23q24 0 49 -9v-30q-20 7 -38 7q-56 0 -56 -58q0 -23 15 -41q19 -20 47 -20h64v-12l-16 -20h-164v32h43zM154 174v-177q0 -104 55 -144t200 -40q132 0 187 36q67 43 67 151h-86l-22 28v25h183v-53h-18q0 -115 -65 -177
q-66 -62 -186 -62h-121q-112 0 -178 55q-73 62 -73 182v153l29 23h28z" />
    <glyph glyph-name="uniFE8B" unicode="&#x626;" horiz-adv-x="304" arabic-form="initial" 
d="M128 641q-23 28 -23 71q0 34 22.5 57t56.5 23q23 0 49 -9v-30q-20 7 -38 7q-56 0 -56 -58q0 -23 14 -41q20 -20 48 -20h64v-12l-16 -20h-164v32h43zM235 460v-377q0 -34 -26 -59q-23 -24 -55 -24h-158v53h134q22 0 34 11q13 13 13 36v360h58z" />
    <glyph glyph-name="uniFE8C" unicode="&#x626;" horiz-adv-x="281" arabic-form="medial" 
d="M128 641q-23 28 -23 71q0 34 22.5 57t56.5 23q23 0 49 -9v-30q-20 7 -38 7q-56 0 -56 -58q0 -23 14 -41q20 -20 48 -20h64v-12l-16 -20h-164v32h43zM235 460v-377q0 -14 -6 -30h55v-53h-43l-22 31h-3q-26 -31 -62 -31h-158v53h135q24 0 36 14q11 12 11 33v360h57z" />
    <glyph glyph-name="uniFE8E" unicode="&#x627;" horiz-adv-x="174" arabic-form="final" 
d="M127 716v-616q0 -22 11 -34q12 -13 35 -13h5v-53h-28q-32 0 -55 24q-26 25 -26 59v633h58z" />
    <glyph glyph-name="uniFE90" unicode="&#x628;" horiz-adv-x="915" arabic-form="final" 
d="M870 460v-377q0 -14 -6 -30h55v-53h-43l-23 31h-2q-27 -31 -63 -31h-576q-56 0 -98 42q-45 46 -45 111v211l29 24h29v-230q0 -44 25 -71q30 -34 84 -34h529q24 0 36 13q11 12 11 34v360h58zM469 -127q16 0 27 -11t11 -27q0 -15 -11 -26.5t-27 -11.5q-15 0 -26 11.5
t-11 26.5q0 16 11 27t26 11z" />
    <glyph glyph-name="uniFE91" unicode="&#x628;" horiz-adv-x="304" arabic-form="initial" 
d="M235 460v-377q0 -34 -26 -59q-23 -24 -55 -24h-158v53h134q22 0 34 11q13 13 13 36v360h58zM179 -127q16 0 27 -11t11 -27q0 -15 -11 -26.5t-27 -11.5q-15 0 -26.5 11.5t-11.5 26.5q0 16 11.5 27t26.5 11z" />
    <glyph glyph-name="uniFE92" unicode="&#x628;" horiz-adv-x="281" arabic-form="medial" 
d="M235 460v-377q0 -14 -6 -30h55v-53h-43l-22 31h-3q-26 -31 -62 -31h-158v53h135q24 0 36 14q11 12 11 33v360h57zM200 -127q15 0 26.5 -11t11.5 -27q0 -15 -11.5 -26.5t-26.5 -11.5q-16 0 -27 11.5t-11 26.5q0 16 11 27t27 11z" />
    <glyph glyph-name="uniFE94" unicode="&#x629;" horiz-adv-x="510" arabic-form="final" 
d="M330 680q15 0 26.5 -11t11.5 -27q0 -15 -11.5 -26.5t-26.5 -11.5q-16 0 -27 11.5t-11 26.5q0 16 11 27t27 11zM428 680q16 0 27 -11t11 -27q0 -15 -11 -26.5t-27 -11.5q-15 0 -26 11.5t-11 26.5q0 16 11 27t26 11zM467 479v-379q0 -21 12 -33q14 -14 33 -14h1v-53h-24
q-41 0 -68 35q-74 -47 -150 -47q-105 0 -166 78q-50 64 -50 157q0 117 76 190q67 64 166 64q57 0 111 -23l30 25h29zM408 401q-50 26 -103 26q-89 0 -145 -68q-46 -57 -46 -136q0 -86 51 -137q45 -44 115 -44q55 0 129 40z" />
    <glyph glyph-name="uniFE96" unicode="&#x62a;" horiz-adv-x="915" arabic-form="final" 
d="M421 487q16 0 27 -11.5t11 -26.5q0 -16 -11 -27t-27 -11q-15 0 -26.5 11t-11.5 27q0 15 11.5 26.5t26.5 11.5zM520 487q15 0 26 -11.5t11 -26.5q0 -16 -11 -27t-26 -11q-16 0 -27 11t-11 27q0 15 11 26.5t27 11.5zM870 460v-377q0 -14 -6 -30h55v-53h-43l-23 31h-2
q-27 -31 -63 -31h-576q-56 0 -98 42q-45 46 -45 111v211l29 24h29v-230q0 -44 25 -71q30 -34 84 -34h529q24 0 36 13q11 12 11 34v360h58z" />
    <glyph glyph-name="uniFE97" unicode="&#x62a;" horiz-adv-x="314" arabic-form="initial" 
d="M108 680q16 0 27 -11t11 -27q0 -15 -11 -26.5t-27 -11.5q-15 0 -26 11.5t-11 26.5q0 16 11 27t26 11zM207 680q15 0 26.5 -11t11.5 -27q0 -15 -11.5 -26.5t-26.5 -11.5q-16 0 -27 11.5t-11 26.5q0 16 11 27t27 11zM235 460v-377q0 -34 -26 -59q-23 -24 -55 -24h-158v53
h134q22 0 34 11q13 13 13 36v360h58z" />
    <glyph glyph-name="uniFE98" unicode="&#x62a;" horiz-adv-x="281" arabic-form="medial" 
d="M108 680q16 0 27 -11t11 -27q0 -15 -11 -26.5t-27 -11.5q-15 0 -26 11.5t-11 26.5q0 16 11 27t26 11zM207 680q15 0 26.5 -11t11.5 -27q0 -15 -11.5 -26.5t-26.5 -11.5q-16 0 -27 11.5t-11 26.5q0 16 11 27t27 11zM235 460v-377q0 -14 -6 -30h55v-53h-43l-22 31h-3
q-26 -31 -62 -31h-158v53h135q24 0 36 14q11 12 11 33v360h57z" />
    <glyph glyph-name="uniFE9A" unicode="&#x62b;" horiz-adv-x="915" arabic-form="final" 
d="M470 565q15 0 26 -11t11 -26q0 -16 -11 -27t-26 -11q-16 0 -27 11t-11 27q0 15 11 26t27 11zM420 487q16 0 27 -11.5t11 -26.5q0 -16 -11 -27t-27 -11q-15 0 -26.5 11t-11.5 27q0 15 11.5 26.5t26.5 11.5zM519 487q16 0 27 -11.5t11 -26.5q0 -16 -11 -27t-27 -11
q-15 0 -26.5 11t-11.5 27q0 15 11.5 26.5t26.5 11.5zM870 460v-377q0 -14 -6 -30h55v-53h-43l-23 31h-2q-27 -31 -63 -31h-576q-56 0 -98 42q-45 46 -45 111v211l29 24h29v-230q0 -44 25 -71q30 -34 84 -34h529q24 0 36 13q11 12 11 34v360h58z" />
    <glyph glyph-name="uniFE9B" unicode="&#x62b;" horiz-adv-x="314" arabic-form="initial" 
d="M158 758q15 0 26 -11t11 -26q0 -16 -11 -27t-26 -11q-16 0 -27 11t-11 27q0 15 11 26t27 11zM108 680q15 0 26.5 -11t11.5 -27q0 -15 -11.5 -26.5t-26.5 -11.5q-16 0 -27 11.5t-11 26.5q0 16 11 27t27 11zM207 680q15 0 26.5 -11t11.5 -27q0 -15 -11.5 -26.5t-26.5 -11.5
q-16 0 -27 11.5t-11 26.5q0 16 11 27t27 11zM235 460v-377q0 -34 -26 -59q-23 -24 -55 -24h-158v53h134q22 0 34 11q13 13 13 36v360h58z" />
    <glyph glyph-name="uniFE9C" unicode="&#x62b;" horiz-adv-x="281" arabic-form="medial" 
d="M158 758q15 0 26 -11t11 -26q0 -16 -11 -27t-26 -11q-16 0 -27 11t-11 27q0 15 11 26t27 11zM108 680q15 0 26.5 -11t11.5 -27q0 -15 -11.5 -26.5t-26.5 -11.5q-16 0 -27 11.5t-11 26.5q0 16 11 27t27 11zM207 680q15 0 26.5 -11t11.5 -27q0 -15 -11.5 -26.5t-26.5 -11.5
q-16 0 -27 11.5t-11 26.5q0 16 11 27t27 11zM235 460v-377q0 -14 -6 -30h55v-53h-43l-22 31h-3q-26 -31 -62 -31h-158v53h135q24 0 36 14q11 12 11 33v360h57z" />
    <glyph glyph-name="uniFE9E" unicode="&#x62c;" horiz-adv-x="616" arabic-form="final" 
d="M179 445q88 28 160 28q123 0 183 -80q49 -65 49 -173v-137q0 -14 -6 -30h55v-53h-43l-23 31h-1q-26 -31 -63 -31h-206q-83 0 -129 -42q-42 -39 -42 -109q0 -97 68 -143q53 -35 140 -35q52 0 134 16v-18l-29 -35q-44 -12 -106 -12q-128 0 -196 56q-69 57 -69 166
q0 99 62 153q63 56 181 56h169q46 0 46 47v132q0 190 -189 190q-67 0 -145 -23v46zM313 -127q15 0 26.5 -11t11.5 -27q0 -15 -11.5 -26.5t-26.5 -11.5q-16 0 -27 11.5t-11 26.5q0 16 11 27t27 11z" />
    <glyph glyph-name="uniFE9F" unicode="&#x62c;" horiz-adv-x="577" arabic-form="initial" 
d="M129 445q89 28 161 28q107 0 173 -69q59 -61 59 -153v-168q0 -37 -29 -63q-24 -20 -52 -20h-445v53h421q47 0 47 47v132q0 190 -189 190q-68 0 -146 -23v46zM248 -127q16 0 27 -11t11 -27q0 -15 -11 -26.5t-27 -11.5q-15 0 -26 11.5t-11 26.5q0 16 11 27t26 11z" />
    <glyph glyph-name="uniFEA0" unicode="&#x62c;" horiz-adv-x="551" arabic-form="medial" 
d="M129 445q89 28 161 28q107 0 173 -69q59 -61 59 -153v-168q0 -14 -6 -30h38v-53h-26l-23 31h-2q-27 -31 -62 -31h-445v53h421q47 0 47 47v132q0 190 -189 190q-68 0 -146 -23v46zM248 -127q16 0 27 -11t11 -27q0 -15 -11 -26.5t-27 -11.5q-15 0 -26 11.5t-11 26.5
q0 16 11 27t26 11z" />
    <glyph glyph-name="uniFEA2" unicode="&#x62d;" horiz-adv-x="616" arabic-form="final" 
d="M179 445q88 28 160 28q107 0 173 -69q59 -61 59 -153v-168q0 -14 -6 -30h55v-53h-43l-23 31h-1q-10 -11 -20 -17q-20 -14 -43 -14h-206q-83 0 -129 -42q-42 -39 -42 -109q0 -82 54.5 -128t153.5 -46q49 0 134 17v-23l-29 -35q-44 -12 -106 -12q-128 0 -196 56
q-69 57 -69 166q0 99 62 153q63 56 181 56h169q46 0 46 47v132q0 190 -189 190q-67 0 -145 -23v46z" />
    <glyph glyph-name="uniFEA3" unicode="&#x62d;" horiz-adv-x="577" arabic-form="initial" 
d="M129 445q89 28 161 28q107 0 173 -69q59 -61 59 -153v-168q0 -37 -29 -63q-24 -20 -52 -20h-445v53h421q47 0 47 47v132q0 190 -189 190q-68 0 -146 -23v46z" />
    <glyph glyph-name="uniFEA4" unicode="&#x62d;" horiz-adv-x="551" arabic-form="medial" 
d="M129 445q89 28 161 28q107 0 173 -69q59 -61 59 -153v-168q0 -14 -6 -30h38v-53h-26l-23 31h-2q-27 -31 -62 -31h-445v53h421q47 0 47 47v132q0 190 -189 190q-68 0 -146 -23v46z" />
    <glyph glyph-name="uniFEA6" unicode="&#x62e;" horiz-adv-x="616" arabic-form="final" 
d="M362 680q15 0 26 -11t11 -27q0 -15 -11 -26.5t-26 -11.5q-16 0 -27 11.5t-11 26.5q0 16 11 27t27 11zM179 445q88 28 160 28q107 0 173 -69q59 -61 59 -153v-168q0 -14 -6 -30h55v-53h-43l-23 31h-1q-10 -11 -20 -17q-20 -14 -43 -14h-206q-83 0 -129 -42
q-42 -39 -42 -108q0 -83 54.5 -129t153.5 -46q50 0 134 17v-23l-29 -35q-44 -12 -105 -12q-266 0 -266 222q0 99 62 153q63 56 181 56h169q46 0 46 47v132q0 190 -189 190q-68 0 -145 -23v46z" />
    <glyph glyph-name="uniFEA7" unicode="&#x62e;" horiz-adv-x="577" arabic-form="initial" 
d="M312 680q16 0 27 -11t11 -27q0 -15 -11 -26.5t-27 -11.5q-15 0 -26.5 11.5t-11.5 26.5q0 16 11.5 27t26.5 11zM129 445q89 28 161 28q107 0 173 -69q59 -61 59 -153v-168q0 -37 -29 -63q-24 -20 -52 -20h-445v53h421q47 0 47 47v132q0 190 -189 190q-68 0 -146 -23v46z
" />
    <glyph glyph-name="uniFEA8" unicode="&#x62e;" horiz-adv-x="551" arabic-form="medial" 
d="M312 680q16 0 27 -11t11 -27q0 -15 -11 -26.5t-27 -11.5q-15 0 -26.5 11.5t-11.5 26.5q0 16 11.5 27t26.5 11zM129 445q89 28 161 28q107 0 173 -69q59 -61 59 -153v-168q0 -14 -6 -30h38v-53h-26l-23 31h-2q-27 -31 -62 -31h-445v53h421q47 0 47 47v132q0 190 -189 190
q-68 0 -146 -23v46z" />
    <glyph glyph-name="uniFEAA" unicode="&#x62f;" horiz-adv-x="494" arabic-form="final" 
d="M140 466q40 7 80 7q104 0 170 -64q60 -59 60 -150v-176q0 -15 -6 -30h54v-53h-43l-22 31h-2q-3 -2 -7 -7q-23 -24 -55 -24h-330v53h306q47 0 47 47v147q0 93 -65 140q-52 39 -135 39q-28 0 -52 -4v44z" />
    <glyph glyph-name="uniFEAC" unicode="&#x630;" horiz-adv-x="494" arabic-form="final" 
d="M176 680q16 0 27 -11t11 -27q0 -15 -11 -26.5t-27 -11.5q-15 0 -26.5 11.5t-11.5 26.5q0 16 11.5 27t26.5 11zM140 466q40 7 80 7q104 0 170 -64q60 -59 60 -150v-176q0 -15 -6 -30h54v-53h-43l-22 31h-2q-3 -2 -7 -7q-23 -24 -55 -24h-330v53h306q47 0 47 47v147
q0 93 -65 140q-52 39 -135 39q-28 0 -52 -4v44z" />
    <glyph glyph-name="uniFEAE" unicode="&#x631;" horiz-adv-x="362" arabic-form="final" 
d="M314 460v-407h51v-53h-51q-1 -238 -267 -238q-18 0 -30 1l-29 36v17q27 -2 52 -2q111 0 163 42q54 44 54 138v466h57z" />
    <glyph glyph-name="uniFEB0" unicode="&#x632;" horiz-adv-x="362" arabic-form="final" 
d="M286 680q15 0 26.5 -11t11.5 -27q0 -15 -11.5 -26.5t-26.5 -11.5q-16 0 -27 11.5t-11 26.5q0 16 11 27t27 11zM314 460v-407h51v-53h-51q0 -126 -81 -188q-66 -50 -176 -50q-22 0 -40 1l-29 36v17q27 -2 52 -2q111 0 163 42q54 44 54 138v466h57z" />
    <glyph glyph-name="uniFEB2" unicode="&#x633;" horiz-adv-x="1278" arabic-form="final" 
d="M1233 460v-377q0 -14 -6 -30h55v-53h-43l-22 31h-3q-26 -31 -62 -31h-183l-23 31h-2q-26 -31 -62 -31h-189q0 -115 -66 -177t-186 -62h-120q-113 0 -178 55q-74 62 -74 182v231l29 24h29v-256q0 -104 55 -144t199 -40q131 0 186 35q68 43 68 149v348h58v-292h165
q47 0 47 47v303h58v-320q0 -14 -6 -30h172q47 0 47 47v360h57z" />
    <glyph glyph-name="uniFEB3" unicode="&#x633;" horiz-adv-x="934" arabic-form="initial" 
d="M864 460v-377q0 -33 -24 -58t-57 -25h-183l-23 31h-2q-26 -31 -62 -31h-183l-23 31h-2q-26 -31 -62 -31h-247v53h223q47 0 47 47v245h58v-262q0 -15 -6 -30h171q47 0 47 47v303h58v-320q0 -14 -6 -30h172q47 0 47 47v360h57z" />
    <glyph glyph-name="uniFEB4" unicode="&#x633;" horiz-adv-x="910" arabic-form="medial" 
d="M864 460v-377q0 -14 -6 -30h55v-53h-43l-22 31h-3q-26 -31 -62 -31h-183l-23 31h-2q-26 -31 -62 -31h-183l-23 31h-2q-26 -31 -62 -31h-247v53h223q47 0 47 47v245h58v-262q0 -15 -6 -30h171q47 0 47 47v303h58v-320q0 -14 -6 -30h172q47 0 47 47v360h57z" />
    <glyph glyph-name="uniFEB6" unicode="&#x634;" horiz-adv-x="1278" arabic-form="final" 
d="M935 758q15 0 26 -11t11 -26q0 -16 -11 -27t-26 -11q-16 0 -27 11t-11 27q0 15 11 26t27 11zM885 680q16 0 27 -11t11 -27q0 -15 -11 -26.5t-27 -11.5q-15 0 -26.5 11.5t-11.5 26.5q0 16 11.5 27t26.5 11zM984 680q16 0 27 -11t11 -27q0 -15 -11 -26.5t-27 -11.5
q-15 0 -26.5 11.5t-11.5 26.5q0 16 11.5 27t26.5 11zM1233 460v-377q0 -14 -6 -30h55v-53h-43l-22 31h-3q-26 -31 -62 -31h-183l-23 31h-2q-26 -31 -62 -31h-189q0 -115 -66 -177t-186 -62h-120q-113 0 -178 55q-74 62 -74 182v231l29 24h29v-256q0 -104 55 -144t199 -40
q131 0 186 35q68 43 68 149v348h58v-292h165q47 0 47 47v303h58v-320q0 -14 -6 -30h172q47 0 47 47v360h57z" />
    <glyph glyph-name="uniFEB7" unicode="&#x634;" horiz-adv-x="934" arabic-form="initial" 
d="M566 758q15 0 26 -11t11 -26q0 -16 -11 -27t-26 -11q-16 0 -27 11t-11 27q0 15 11 26t27 11zM516 680q16 0 27 -11t11 -27q0 -15 -11 -26.5t-27 -11.5q-15 0 -26.5 11.5t-11.5 26.5q0 16 11.5 27t26.5 11zM615 680q16 0 27 -11t11 -27q0 -15 -11 -26.5t-27 -11.5
q-15 0 -26.5 11.5t-11.5 26.5q0 16 11.5 27t26.5 11zM864 460v-377q0 -33 -24 -58t-57 -25h-183l-23 31h-2q-26 -31 -62 -31h-183l-23 31h-2q-26 -31 -62 -31h-247v53h223q47 0 47 47v245h58v-262q0 -15 -6 -30h171q47 0 47 47v303h58v-320q0 -14 -6 -30h172q47 0 47 47v360
h57z" />
    <glyph glyph-name="uniFEB8" unicode="&#x634;" horiz-adv-x="910" arabic-form="medial" 
d="M566 758q15 0 26 -11t11 -26q0 -16 -11 -27t-26 -11q-16 0 -27 11t-11 27q0 15 11 26t27 11zM516 680q16 0 27 -11t11 -27q0 -15 -11 -26.5t-27 -11.5q-15 0 -26.5 11.5t-11.5 26.5q0 16 11.5 27t26.5 11zM615 680q16 0 27 -11t11 -27q0 -15 -11 -26.5t-27 -11.5
q-15 0 -26.5 11.5t-11.5 26.5q0 16 11.5 27t26.5 11zM864 460v-377q0 -14 -6 -30h55v-53h-43l-22 31h-3q-26 -31 -62 -31h-183l-23 31h-2q-26 -31 -62 -31h-183l-23 31h-2q-26 -31 -62 -31h-247v53h223q47 0 47 47v245h58v-262q0 -15 -6 -30h171q47 0 47 47v303h58v-320
q0 -14 -6 -30h172q47 0 47 47v360h57z" />
    <glyph glyph-name="uniFEBA" unicode="&#x635;" horiz-adv-x="1368" arabic-form="final" 
d="M693 191q85 167 192 232q82 49 196 49q105 0 172 -64q70 -68 70 -178v-147q0 -15 -6 -30h55v-53h-43l-23 31h-2q-25 -31 -62 -31h-549q0 -115 -66 -177t-186 -62h-120q-113 0 -178 55q-74 62 -74 182v231l29 24h29v-256q0 -104 55 -144t199 -40q131 0 186 35
q68 43 68 149v463h58v-269zM1266 249q-1 78 -48 123q-52 51 -141 51q-94 0 -166 -46q-136 -88 -216 -324h524q47 0 47 47v149z" />
    <glyph glyph-name="uniFEBB" unicode="&#x635;" horiz-adv-x="919" arabic-form="initial" 
d="M233 191q85 167 192 232q82 49 197 49q104 0 172 -64q70 -68 70 -178v-147q0 -34 -26 -59q-23 -24 -55 -24h-787v53h180v407h57v-269zM806 249q0 78 -47 123q-53 51 -142 51q-94 0 -165 -46q-137 -88 -217 -324h524q47 0 47 47v149z" />
    <glyph glyph-name="uniFEBC" unicode="&#x635;" horiz-adv-x="909" arabic-form="medial" 
d="M233 191q85 167 192 232q82 49 197 49q104 0 172 -64q70 -68 70 -178v-147q0 -14 -6 -30h54v-53h-43l-22 31h-2q-26 -31 -62 -31h-787v53h180v407h57v-269zM806 249q0 78 -47 123q-53 51 -142 51q-94 0 -165 -46q-137 -88 -217 -324h524q47 0 47 47v149z" />
    <glyph glyph-name="uniFEBE" unicode="&#x636;" horiz-adv-x="1368" arabic-form="final" 
d="M1011 680q16 0 27 -11t11 -27q0 -15 -11 -26.5t-27 -11.5q-15 0 -26 11.5t-11 26.5q0 16 11 27t26 11zM693 191q85 167 192 232q82 49 196 49q105 0 172 -64q70 -68 70 -178v-147q0 -15 -6 -30h55v-53h-43l-23 31h-2q-25 -31 -62 -31h-549q0 -115 -66 -177t-186 -62h-120
q-113 0 -178 55q-74 62 -74 182v231l29 24h29v-256q0 -104 55 -144t199 -40q131 0 186 35q68 43 68 149v463h58v-269zM1266 249q-1 78 -48 123q-52 51 -141 51q-94 0 -166 -46q-136 -88 -216 -324h524q47 0 47 47v149z" />
    <glyph glyph-name="uniFEBF" unicode="&#x636;" horiz-adv-x="919" arabic-form="initial" 
d="M562 680q15 0 26 -11t11 -27q0 -15 -11 -26.5t-26 -11.5q-16 0 -27 11.5t-11 26.5q0 16 11 27t27 11zM233 191q85 167 192 232q82 49 197 49q104 0 172 -64q70 -68 70 -178v-147q0 -34 -26 -59q-23 -24 -55 -24h-787v53h180v407h57v-269zM806 249q0 78 -47 123
q-53 51 -142 51q-94 0 -165 -46q-137 -88 -217 -324h524q47 0 47 47v149z" />
    <glyph glyph-name="uniFEC0" unicode="&#x636;" horiz-adv-x="909" arabic-form="medial" 
d="M562 680q15 0 26 -11t11 -27q0 -15 -11 -26.5t-26 -11.5q-16 0 -27 11.5t-11 26.5q0 16 11 27t27 11zM233 191q85 167 192 232q82 49 197 49q104 0 172 -64q70 -68 70 -178v-147q0 -14 -6 -30h54v-53h-43l-22 31h-2q-26 -31 -62 -31h-787v53h180v407h57v-269zM806 249
q0 78 -47 123q-53 51 -142 51q-94 0 -165 -46q-137 -88 -217 -324h524q47 0 47 47v149z" />
    <glyph glyph-name="uniFEC2" unicode="&#x637;" horiz-adv-x="975" arabic-form="final" 
d="M300 716v-525q85 167 192 232q82 49 196 49q105 0 173 -64q70 -68 70 -178v-147q0 -14 -6 -30h54v-53h-43l-23 31h-1q-27 -31 -62 -31h-771l-24 29v24h187v663h58zM873 249q-1 78 -47 123q-53 51 -142 51q-94 0 -165 -46q-137 -88 -217 -324h524q47 0 47 47v149z" />
    <glyph glyph-name="uniFEC3" unicode="&#x637;" horiz-adv-x="919" arabic-form="initial" 
d="M233 716v-525q85 167 192 232q82 49 197 49q104 0 172 -64q70 -68 70 -178v-147q0 -34 -26 -59q-23 -24 -55 -24h-787v53h180v663h57zM806 249q0 78 -47 123q-53 51 -142 51q-94 0 -165 -46q-137 -88 -217 -324h524q47 0 47 47v149z" />
    <glyph glyph-name="uniFEC4" unicode="&#x637;" horiz-adv-x="909" arabic-form="medial" 
d="M233 716v-525q85 167 192 232q82 49 197 49q104 0 172 -64q70 -68 70 -178v-147q0 -14 -6 -30h54v-53h-43l-22 31h-2q-26 -31 -62 -31h-787v53h180v663h57zM806 249q0 78 -47 123q-53 51 -142 51q-94 0 -165 -46q-137 -88 -217 -324h524q47 0 47 47v149z" />
    <glyph glyph-name="uniFEC6" unicode="&#x638;" horiz-adv-x="975" arabic-form="final" 
d="M300 716v-525q85 167 192 232q82 49 196 49q105 0 173 -64q70 -68 70 -178v-147q0 -14 -6 -30h54v-53h-43l-23 31h-1q-27 -31 -62 -31h-771l-24 29v24h187v663h58zM629 680q15 0 26 -11t11 -27q0 -15 -11 -26.5t-26 -11.5q-16 0 -27 11.5t-11 26.5q0 16 11 27t27 11z
M873 249q-1 78 -47 123q-53 51 -142 51q-94 0 -165 -46q-137 -88 -217 -324h524q47 0 47 47v149z" />
    <glyph glyph-name="uniFEC7" unicode="&#x638;" horiz-adv-x="919" arabic-form="initial" 
d="M233 716v-525q85 167 192 232q82 49 197 49q104 0 172 -64q70 -68 70 -178v-147q0 -34 -26 -59q-23 -24 -55 -24h-787v53h180v663h57zM562 680q15 0 26 -11t11 -27q0 -15 -11 -26.5t-26 -11.5q-16 0 -27 11.5t-11 26.5q0 16 11 27t27 11zM806 249q0 78 -47 123
q-53 51 -142 51q-94 0 -165 -46q-137 -88 -217 -324h524q47 0 47 47v149z" />
    <glyph glyph-name="uniFEC8" unicode="&#x638;" horiz-adv-x="909" arabic-form="medial" 
d="M233 716v-525q85 167 192 232q82 49 197 49q104 0 172 -64q70 -68 70 -178v-147q0 -14 -6 -30h54v-53h-43l-22 31h-2q-26 -31 -62 -31h-787v53h180v663h57zM562 680q15 0 26 -11t11 -27q0 -15 -11 -26.5t-26 -11.5q-16 0 -27 11.5t-11 26.5q0 16 11 27t27 11zM806 249
q0 78 -47 123q-53 51 -142 51q-94 0 -165 -46q-137 -88 -217 -324h524q47 0 47 47v149z" />
    <glyph glyph-name="uniFECA" unicode="&#x639;" horiz-adv-x="595" arabic-form="final" 
d="M96 307q40 85 122 132q59 32 125 32q75 0 139 -42q72 -46 107 -122l-9 -22q-80 -32 -122 -76q-53 -55 -66 -156h207v-53h-190q-38 0 -64 26h-2q-24 -25 -59 -26q-83 0 -129 -42q-42 -39 -42 -109q0 -82 54.5 -128t153.5 -46q52 0 134 17v-23l-29 -35q-44 -12 -106 -12
q-128 0 -196 56q-69 57 -69 166q0 99 62 153q56 50 176 56q-13 97 -62 151q-44 48 -126 81zM523 319q-37 52 -91 78q-41 20 -89 21q-50 0 -95 -23q-50 -26 -86 -76q67 -31 103 -67q42 -43 77 -163h1q32 113 71 156q35 40 109 74z" />
    <glyph glyph-name="uniFECB" unicode="&#x639;" horiz-adv-x="609" arabic-form="initial" 
d="M229 53q-79 74 -79 186q0 113 70 177q61 56 158 56q51 0 108 -17v-49q-56 16 -105 16q-88 0 -134 -56q-39 -48 -39 -126q0 -75 46 -132q44 -55 106 -55h207v-24l-24 -29h-547v53h233z" />
    <glyph glyph-name="uniFECC" unicode="&#x639;" horiz-adv-x="634" arabic-form="medial" 
d="M135 307q39 85 122 132q59 32 124 32q75 0 139 -42q72 -46 107 -122l-9 -22q-79 -32 -122 -76q-52 -55 -65 -156h206v-53h-190q-38 0 -63 26h-3q-25 -26 -61 -26h-324v53h336q-14 98 -62 151q-44 48 -126 81zM561 319q-37 52 -90 78q-42 20 -90 21q-49 0 -94 -23
q-51 -26 -86 -76q67 -31 102 -67q43 -43 77 -163h2q32 113 70 156q36 40 109 74z" />
    <glyph glyph-name="uniFECE" unicode="&#x63a;" horiz-adv-x="595" arabic-form="final" 
d="M334 680q15 0 26 -11t11 -27q0 -15 -11 -26.5t-26 -11.5q-16 0 -27 11.5t-11 26.5q0 16 11 27t27 11zM96 307q40 85 122 132q59 32 125 32q75 0 139 -41q71 -47 107 -123l-9 -22q-80 -32 -122 -76q-53 -55 -66 -156h207v-53h-190q-38 0 -64 26h-2q-24 -25 -59 -26
q-83 0 -129 -42q-42 -39 -42 -108q0 -83 54.5 -129t153.5 -46q52 0 134 17v-23l-29 -35q-44 -12 -105 -12q-266 0 -266 222q0 99 62 153q56 50 176 56q-13 97 -62 151q-44 48 -126 81zM523 319q-37 52 -91 78q-41 20 -89 21q-50 0 -95 -23q-50 -26 -86 -76q67 -31 103 -67
q42 -43 77 -163h1q32 113 71 156q35 40 109 74z" />
    <glyph glyph-name="uniFECF" unicode="&#x63a;" horiz-adv-x="609" arabic-form="initial" 
d="M378 680q15 0 26 -11t11 -27q0 -15 -11 -26.5t-26 -11.5q-16 0 -27 11.5t-11 26.5q0 16 11 27t27 11zM229 53q-79 74 -79 186q0 113 70 177q61 56 158 56q51 0 108 -17v-49q-56 16 -105 16q-88 0 -134 -56q-39 -48 -39 -126q0 -75 46 -132q44 -55 106 -55h207v-24
l-24 -29h-547v53h233z" />
    <glyph glyph-name="uniFED0" unicode="&#x63a;" horiz-adv-x="634" arabic-form="medial" 
d="M389 680q15 0 26 -11t11 -27q0 -15 -11 -26.5t-26 -11.5q-16 0 -27 11.5t-11 26.5q0 16 11 27t27 11zM135 307q39 85 122 132q59 32 124 32q75 0 139 -42q72 -46 107 -122l-9 -22q-79 -32 -122 -76q-52 -55 -65 -156h206v-53h-190q-38 0 -63 26h-3q-25 -26 -61 -26h-324
v53h336q-14 98 -62 151q-44 48 -126 81zM561 319q-37 52 -90 78q-42 20 -90 21q-49 0 -94 -23q-51 -26 -86 -76q67 -31 102 -67q43 -43 77 -163h2q32 113 70 156q36 40 109 74z" />
    <glyph glyph-name="uniFED2" unicode="&#x641;" horiz-adv-x="938" arabic-form="final" 
d="M715 680q16 0 27 -11t11 -27q0 -15 -11 -26.5t-27 -11.5q-15 0 -26 11.5t-11 26.5q0 16 11 27t26 11zM572 53q-75 75 -75 184q0 114 64 178q56 57 146 57q85 0 141 -53q68 -65 68 -182q0 -108 -76 -184h102v-53h-139h-16h-14q-46 0 -65 5h-3q-19 -5 -66 -5h-15h-15h-397
q-56 0 -98 42q-45 46 -45 111v211l29 24h29v-230q0 -44 25 -71q30 -34 84 -34h336zM859 242q0 82 -43 131q-40 46 -109 46q-80 0 -121 -60q-31 -46 -31 -121q0 -79 44 -132q41 -50 108 -54q74 5 117 71q35 52 35 119z" />
    <glyph glyph-name="uniFED3" unicode="&#x641;" horiz-adv-x="618" arabic-form="initial" 
d="M385 680q16 0 27 -11t11 -27q0 -15 -11 -26.5t-27 -11.5q-15 0 -26 11.5t-11 26.5q0 16 11 27t26 11zM219 53q-36 34 -53 81q-16 47 -16 106q0 105 58 167q62 65 169 65q81 0 129 -42q56 -47 56 -137v-210q0 -34 -26 -59q-23 -24 -55 -24h-485v53h223zM505 292
q0 60 -33 93q-34 34 -95 34q-86 0 -128 -52q-41 -51 -41 -141q0 -77 40 -124q42 -49 113 -49h97q47 0 47 47v192z" />
    <glyph glyph-name="uniFED4" unicode="&#x641;" horiz-adv-x="593" arabic-form="medial" 
d="M370 680q15 0 26.5 -11t11.5 -27q0 -15 -11.5 -26.5t-26.5 -11.5q-16 0 -27 11.5t-11 26.5q0 16 11 27t27 11zM227 53q-75 75 -75 184q0 114 64 178q56 57 145 57q85 0 141 -53q69 -65 69 -182q0 -108 -76 -184h101v-53h-139h-16h-13q-46 0 -66 5h-2q-20 -5 -67 -5h-15
h-14h-268v53h231zM361 419q-80 0 -120 -60q-32 -47 -32 -121q0 -79 44 -132q42 -50 108 -54q75 5 118 69q34 51 34 117q0 89 -44 137q-40 44 -108 44z" />
    <glyph glyph-name="uniFED6" unicode="&#x642;" horiz-adv-x="721" arabic-form="final" 
d="M459 680q15 0 26.5 -11t11.5 -27q0 -15 -11.5 -26.5t-26.5 -11.5q-16 0 -27 11.5t-11 26.5q0 16 11 27t27 11zM557 680q16 0 27 -11t11 -27q0 -15 -11 -26.5t-27 -11.5q-15 0 -26 11.5t-11 26.5q0 16 11 27t26 11zM505 0q-110 0 -169 65q-56 63 -56 173q0 112 60 173
q59 61 167 61q82 0 130 -42q56 -47 56 -137v-240h32v-53h-32q0 -115 -66 -177t-186 -62h-120q-113 0 -178 55q-74 62 -74 182v163l29 24h29v-188q0 -104 55 -144t199 -40q132 0 188 36q66 43 66 151h-130zM635 292q0 60 -32 93q-35 34 -95 34q-87 0 -131 -52
q-39 -47 -39 -129q0 -61 22 -106q40 -79 131 -79h144v239z" />
    <glyph glyph-name="uniFED7" unicode="&#x642;" horiz-adv-x="618" arabic-form="initial" 
d="M337 680q16 0 27 -11t11 -27q0 -15 -11 -26.5t-27 -11.5q-15 0 -26.5 11.5t-11.5 26.5q0 16 11.5 27t26.5 11zM436 680q15 0 26 -11t11 -27q0 -15 -11 -26.5t-26 -11.5q-16 0 -27 11.5t-11 26.5q0 16 11 27t27 11zM219 53q-36 34 -53 81q-16 47 -16 106q0 105 58 167
q62 65 169 65q81 0 129 -42q56 -47 56 -137v-210q0 -34 -26 -59q-23 -24 -55 -24h-485v53h223zM505 292q0 60 -33 93q-34 34 -95 34q-86 0 -128 -52q-41 -51 -41 -141q0 -77 40 -124q42 -49 113 -49h97q47 0 47 47v192z" />
    <glyph glyph-name="uniFED8" unicode="&#x642;" horiz-adv-x="593" arabic-form="medial" 
d="M321 680q16 0 27 -11t11 -27q0 -15 -11 -26.5t-27 -11.5q-15 0 -26 11.5t-11 26.5q0 16 11 27t26 11zM420 680q16 0 27 -11t11 -27q0 -15 -11 -26.5t-27 -11.5t-27 11.5t-11 26.5q0 16 11 27t27 11zM227 53q-75 75 -75 184q0 114 64 178q56 57 145 57q85 0 141 -53
q69 -65 69 -182q0 -108 -76 -184h101v-53h-139h-16h-13q-46 0 -66 5h-2q-20 -5 -67 -5h-15h-14h-268v53h231zM361 419q-80 0 -120 -60q-32 -47 -32 -121q0 -79 44 -132q42 -50 108 -54q75 5 118 69q34 51 34 117q0 89 -44 137q-40 44 -108 44z" />
    <glyph glyph-name="uniFEDA" unicode="&#x643;" horiz-adv-x="915" arabic-form="final" 
d="M870 716v-633q0 -14 -6 -30h55v-53h-43l-23 31h-2q-27 -31 -63 -31h-576q-56 0 -98 42q-45 46 -45 111v211l29 24h29v-230q0 -44 25 -71q30 -34 84 -34h529q24 0 36 13q11 12 11 34v616h58zM406 388q-31 44 -31 98q0 57 34 92t90 35q35 0 57 -7v-39q-24 8 -49 8
q-87 0 -87 -87q0 -44 19.5 -72t51.5 -28h121v-19l-15 -19h-273v38h82z" />
    <glyph glyph-name="uniFEDB" unicode="&#x643;" horiz-adv-x="572" arabic-form="initial" 
d="M421 732v-51l-267 -153q159 -27 267 -160q95 -116 95 -254q0 -114 -84 -114h-436v53h413q50 0 50 66q0 141 -116 253q-98 94 -220 108q-5 1 -5 6v72z" />
    <glyph glyph-name="uniFEDC" unicode="&#x643;" horiz-adv-x="537" arabic-form="medial" 
d="M421 732v-51l-267 -153q159 -27 267 -160q95 -116 95 -254q0 -41 -9 -61h33v-53h-20l-22 31h-3q-23 -31 -63 -31h-436v53h413q50 0 50 66q0 141 -116 253q-98 94 -220 108q-5 1 -5 6v72z" />
    <glyph glyph-name="uniFEDE" unicode="&#x644;" horiz-adv-x="740" arabic-form="final" 
d="M693 716v-663h50v-53h-50q0 -115 -66 -177t-186 -62h-120q-113 0 -178 55q-74 62 -74 182v231l29 24h29v-256q0 -104 55 -144t199 -40q131 0 186 35q68 43 68 149v719h58z" />
    <glyph glyph-name="uniFEDF" unicode="&#x644;" horiz-adv-x="305" arabic-form="initial" 
d="M235 716v-633q0 -34 -25 -59q-24 -24 -56 -24h-158v53h135q22 0 34 11q13 13 13 36v616h57z" />
    <glyph glyph-name="uniFEE0" unicode="&#x644;" horiz-adv-x="281" arabic-form="medial" 
d="M235 716v-633q0 -14 -6 -30h55v-53h-43l-22 31h-3q-26 -31 -62 -31h-158v53h135q24 0 36 14q11 12 11 33v616h57z" />
    <glyph glyph-name="uniFEE2" unicode="&#x645;" horiz-adv-x="588" arabic-form="final" 
d="M203 53q-68 65 -68 172q0 118 66 185q59 61 157 61q86 0 134 -41q53 -46 53 -138v-192q0 -21 12 -33q14 -14 33 -14h2v-53h-25q-21 0 -37 9q-17 8 -30 26q-2 -1 -7 -4q-30 -16 -52 -21q-33 -10 -81 -10h-201q-46 0 -46 -47v-302l-30 -24h-28v343q0 34 26 59q23 24 55 24
h67zM487 292q0 59 -40 97q-35 29 -89 29q-81 0 -128 -66q-38 -53 -38 -126q0 -174 175 -174q63 0 120 33v207z" />
    <glyph glyph-name="uniFEE3" unicode="&#x645;" horiz-adv-x="632" arabic-form="initial" 
d="M176 292q0 92 52 138q49 41 134 41q98 0 157 -60q67 -68 67 -193q0 -100 -52 -168q-63 -81 -170 -81q-82 0 -143 66q-26 -35 -68 -35h-157v53h133q20 0 34 14q13 12 13 33v192zM233 85q60 -63 133 -63q79 0 125 66q37 54 37 130t-35 130q-45 70 -131 70q-54 0 -88 -29
q-41 -38 -41 -97v-207z" />
    <glyph glyph-name="uniFEE4" unicode="&#x645;" horiz-adv-x="603" arabic-form="medial" 
d="M199 53q-49 66 -49 165q0 124 65 192q59 61 158 61q81 0 128 -36q59 -46 59 -143v-192q0 -21 12 -33q14 -14 31 -14h4v-53h-25q-42 0 -67 35q-61 -65 -144 -65q-94 0 -153 61h-2l-23 -31h-197v53h203zM502 292q0 59 -40 97q-35 29 -89 29q-84 0 -130 -68
q-36 -54 -36 -132q0 -88 49 -144q45 -51 114 -51q74 0 132 62v207z" />
    <glyph glyph-name="uniFEE6" unicode="&#x646;" horiz-adv-x="740" arabic-form="final" 
d="M384 472q15 0 26 -11t11 -27q0 -15 -11 -26.5t-26 -11.5q-16 0 -27 11.5t-11 26.5q0 16 11 27t27 11zM707 460v-407h50v-53h-50q0 -115 -66 -177t-186 -62h-120q-113 0 -178 55q-74 62 -74 182v231l29 24h29v-256q0 -104 55 -144t199 -40q131 0 186 35q68 43 68 149v463
h58z" />
    <glyph glyph-name="uniFEE7" unicode="&#x646;" horiz-adv-x="304" arabic-form="initial" 
d="M205 680q15 0 26 -11t11 -27q0 -15 -11 -26.5t-26 -11.5q-16 0 -27 11.5t-11 26.5q0 16 11 27t27 11zM235 460v-377q0 -34 -26 -59q-23 -24 -55 -24h-158v53h134q22 0 34 11q13 13 13 36v360h58z" />
    <glyph glyph-name="uniFEE8" unicode="&#x646;" horiz-adv-x="281" arabic-form="medial" 
d="M207 680q15 0 26.5 -11t11.5 -27q0 -15 -11.5 -26.5t-26.5 -11.5q-16 0 -27 11.5t-11 26.5q0 16 11 27t27 11zM235 460v-377q0 -14 -6 -30h55v-53h-43l-22 31h-3q-26 -31 -62 -31h-158v53h135q24 0 36 14q11 12 11 33v360h57z" />
    <glyph glyph-name="uniFEEA" unicode="&#x647;" horiz-adv-x="510" arabic-form="final" 
d="M467 479v-379q0 -21 12 -33q14 -14 33 -14h1v-53h-24q-41 0 -68 35q-74 -47 -150 -47q-105 0 -166 78q-50 64 -50 157q0 117 76 190q67 64 166 64q57 0 111 -23l30 25h29zM408 401q-50 26 -103 26q-89 0 -145 -68q-46 -57 -46 -136q0 -86 51 -137q45 -44 115 -44
q55 0 129 40z" />
    <glyph glyph-name="uniFEEB" unicode="&#x647;" horiz-adv-x="773" arabic-form="initial" 
d="M245 449q104 51 221 51q147 0 207 -98q45 -74 45 -211v-108q0 -34 -26 -59q-23 -24 -55 -24h-235q-61 0 -81 4h-4q-19 -4 -83 -4h-238v53h209q-25 25 -42 59q-23 50 -23 103q0 104 56 157q21 19 49 30v47zM660 177q0 170 -62 224q-52 46 -141 46q-72 0 -154 -31q8 1 16 1
q93 0 140 -65q38 -52 38 -135q0 -51 -23 -100q-16 -35 -43 -64h182q22 0 34 11q13 13 13 36v77zM317 58q70 9 105 71q22 39 22 84q0 83 -40 123q-32 35 -87 35t-87 -35q-37 -41 -37 -123q0 -48 23 -87q34 -60 101 -68z" />
    <glyph glyph-name="uniFEEC" unicode="&#x647;" horiz-adv-x="747" arabic-form="medial" 
d="M245 449q104 51 221 51q147 0 207 -98q45 -74 45 -211v-108q0 -14 -6 -30h38v-53h-26l-23 31h-2q-7 -9 -17 -16q-21 -15 -45 -15h-235q-61 0 -81 4h-4q-19 -4 -83 -4h-238v53h209q-22 22 -38 51q-27 53 -27 111q0 104 56 157q21 19 49 30v47zM660 177q0 170 -62 224
q-52 46 -141 46q-72 0 -154 -31q8 1 16 1q93 0 140 -65q38 -52 38 -135q0 -51 -23 -100q-16 -35 -43 -64h182q22 0 34 11q13 13 13 36v77zM317 58q55 7 91 50.5t36 104.5q0 83 -40 123q-32 35 -87 35t-87 -35q-37 -41 -37 -123q0 -62 34.5 -105t89.5 -50z" />
    <glyph glyph-name="uniFEEE" unicode="&#x648;" horiz-adv-x="496" arabic-form="final" 
d="M280 0q-117 0 -175 72q-50 62 -50 166q0 112 59 173q60 61 168 61q81 0 130 -42q55 -47 55 -137v-240h33v-53h-33q0 -126 -81 -188q-66 -50 -176 -50q-22 0 -40 1l-29 36v17q27 -2 52 -2q116 0 165 43q50 44 52 143h-130zM410 292q0 60 -33 93q-34 34 -95 34
q-81 0 -125 -47t-44 -134q0 -86 40 -136q40 -49 113 -49h144v239z" />
    <glyph glyph-name="uniFEEF" unicode="&#x649;" horiz-adv-x="744" arabic-form="isolated" 
d="M127 -4q0 -100 52 -140.5t180 -40.5q123 0 166 11q80 21 107 87q10 26 10 54q0 59 -31 88t-118 50q-108 27 -146 60q-48 43 -48 130q0 85 48.5 131t139.5 46q58 0 119 -22v-44q-76 17 -117 17q-134 0 -134 -138q0 -52 29.5 -77.5t118.5 -51.5q102 -28 143 -63
q52 -45 52 -122q0 -114 -87 -169q-66 -41 -170 -41h-120q-112 0 -178 55q-74 61 -74 182v153l29 23h29v-178z" />
    <glyph glyph-name="uniFEF0" unicode="&#x649;" horiz-adv-x="683" arabic-form="final" 
d="M127 174v-177q0 -104 55 -144t199 -40q132 0 188 36q66 43 66 151h-85l-23 28v25h184v-53h-18q0 -115 -66 -177t-186 -62h-120q-113 0 -178 55q-74 62 -74 182v153l29 23h29z" />
    <glyph glyph-name="uniFEF2" unicode="&#x64a;" horiz-adv-x="683" arabic-form="final" 
d="M127 174v-177q0 -104 55 -144t199 -40q132 0 188 36q66 43 66 151h-85l-23 28v25h184v-53h-18q0 -115 -66 -177t-186 -62h-120q-113 0 -178 55q-74 62 -74 182v153l29 23h29zM329 -297q16 0 27 -11.5t11 -26.5q0 -16 -11 -27t-27 -11q-15 0 -26.5 11t-11.5 27
q0 15 11.5 26.5t26.5 11.5zM428 -297q15 0 26 -11.5t11 -26.5q0 -16 -11 -27t-26 -11q-16 0 -27 11t-11 27q0 15 11 26.5t27 11.5z" />
    <glyph glyph-name="uniFEF3" unicode="&#x64a;" horiz-adv-x="304" arabic-form="initial" 
d="M235 460v-377q0 -34 -26 -59q-23 -24 -55 -24h-158v53h134q22 0 34 11q13 13 13 36v360h58zM90 -127q16 0 27 -11t11 -27q0 -15 -11 -26.5t-27 -11.5q-15 0 -26 11.5t-11 26.5q0 16 11 27t26 11zM189 -127q15 0 26.5 -11t11.5 -27q0 -15 -11.5 -26.5t-26.5 -11.5
q-16 0 -27 11.5t-11 26.5q0 16 11 27t27 11z" />
    <glyph glyph-name="uniFEF4" unicode="&#x64a;" horiz-adv-x="281" arabic-form="medial" 
d="M235 460v-377q0 -14 -6 -30h55v-53h-43l-22 31h-3q-26 -31 -62 -31h-158v53h135q24 0 36 14q11 12 11 33v360h57zM99 -127q16 0 27 -11t11 -27q0 -15 -11 -26.5t-27 -11.5q-15 0 -26.5 11.5t-11.5 26.5q0 16 11.5 27t26.5 11zM198 -127q15 0 26 -11t11 -27
q0 -15 -11 -26.5t-26 -11.5q-16 0 -27 11.5t-11 26.5q0 16 11 27t27 11z" />
    <glyph glyph-name=".notdef" horiz-adv-x="184" 
d="M18 0v716h148v-716h-148zM148 18v680h-112v-680h112z" />
    <glyph glyph-name="glyph1" 
 />
    <glyph glyph-name="glyph2" horiz-adv-x="184" 
 />
    <glyph glyph-name="space" unicode=" " horiz-adv-x="184" 
 />
    <glyph glyph-name="uni060C" unicode="&#x60c;" horiz-adv-x="192" 
d="M91 73h8q37 0 37 -38q0 -40 -37 -40q-47 0 -47 68q0 73 58 135h18l15 -12q-25 -28 -41 -66q-11 -29 -11 -47z" />
    <glyph glyph-name="uni0615" unicode="&#x615;" 
d="M53 773v-95q49 76 122 76q34 0 54 -22.5t20 -61.5v-28q0 -20 -10 -35q-16 -21 -46 -21h-193v31h26v156h27zM215 667q0 30 -16 43q-11 9 -30 9q-29 -1 -64 -28q-34 -30 -52 -74h138q24 0 24 24v26z" />
    <glyph glyph-name="uni061B" unicode="&#x61b;" horiz-adv-x="192" 
d="M91 267q4 1 8 1q37 0 37 -38q0 -40 -37 -40q-47 0 -47 67q0 73 58 136h18l15 -12q-25 -29 -41 -67q-11 -29 -11 -47zM99 70q15 0 26 -11t11 -26q0 -16 -11 -27t-26 -11q-16 0 -27 11t-11 27q0 15 11 26t27 11z" />
    <glyph glyph-name="uni061F" unicode="&#x61f;" horiz-adv-x="398" 
d="M245 184q2 29 2 53q0 66 -19 97.5t-98 95.5q-51 42 -70.5 74.5t-19.5 73.5q0 73 60 112q47 30 113 30q123 0 152 -146l-42 -14q-18 107 -108 107q-50 0 -84.5 -25.5t-34.5 -63.5q0 -35 18.5 -62t70.5 -68q13 -10 19 -15l20 -16q38 -30 53 -53q28 -47 28 -117
q0 -20 -2 -41l-30 -22h-28zM271 70q16 0 27 -11t11 -26q0 -16 -11 -27t-27 -11q-15 0 -26 11t-11 27q0 15 11 26t26 11z" />
    <glyph glyph-name="uni0621" unicode="&#x621;" horiz-adv-x="482" 
d="M163 18q-31 17 -52 45q-49 62 -49 165q0 112 59 172q55 56 152 56q36 0 83 -11v-49q-48 11 -84 11q-82 0 -122 -61q-31 -46 -31 -120q0 -82 39 -125.5t111 -43.5q10 0 19 1q89 12 126 13q5 1 15 1q17 1 26 1h6v-21l-27 -32q-85 -3 -170 -26q-104 -28 -181 -81l-28 44
q45 30 108 61z" />
    <glyph glyph-name="uni0622" unicode="&#x622;" horiz-adv-x="196" 
d="M-46 816q35 55 79 55q24 0 61 -18q13 -7 21 -10q23 -10 44 -10q31 0 51 24l18 -12q-42 -52 -80 -52q-20 0 -44 9l-26 13q-33 15 -49 15q-26 0 -58 -27zM127 716v-717l-30 -24h-28v741h58z" />
    <glyph glyph-name="uni0623" unicode="&#x623;" horiz-adv-x="196" 
d="M45 823q-23 28 -23 71q0 34 22.5 57t56.5 23q24 0 49 -9v-30q-20 7 -38 7q-56 0 -56 -58q0 -23 15 -41q19 -20 47 -20h64v-11l-16 -21h-164v32h43zM126 716v-717l-29 -24h-28v741h57z" />
    <glyph glyph-name="uni0624" unicode="&#x624;" horiz-adv-x="523" 
d="M240 586q-24 28 -24 70q0 35 22.5 58t56.5 23q24 0 49 -9v-30q-20 7 -38 7q-56 0 -56 -59q0 -23 15 -40q19 -20 48 -20h64v-12l-17 -20h-164v32h44zM410 14q-58 -25 -123 -25q-113 0 -175 73q-57 66 -57 176q0 122 71 183q59 51 156 51q81 0 130 -42q55 -47 55 -137v-295
q0 -125 -82 -186q-66 -50 -175 -50q-22 0 -40 1l-29 36v17q27 -2 52 -2q131 0 180 58q37 42 37 142zM410 292q0 60 -33 93q-34 34 -95 34q-81 0 -125 -47t-44 -134q0 -100 59 -153q50 -44 130 -44q51 0 108 23v228z" />
    <glyph glyph-name="uni0625" unicode="&#x625;" horiz-adv-x="196" 
d="M126 716v-717l-29 -24h-28v741h57zM43 -269q-23 28 -23 71q0 34 22.5 57t56.5 23q24 0 49 -9v-30q-20 7 -38 7q-56 0 -56 -58q0 -23 15 -41q19 -20 47 -20h64v-11l-16 -21h-164v32h43z" />
    <glyph glyph-name="uni0626" unicode="&#x626;" horiz-adv-x="771" 
d="M112 322q-23 28 -23 71q0 34 22.5 57t56.5 23q24 0 49 -9v-30q-20 7 -38 7q-56 0 -56 -58q0 -23 15 -41q19 -20 47 -20h64v-12l-16 -20h-164v32h43zM154 -4q0 -100 52.5 -140.5t180.5 -40.5q123 0 166 11q80 21 107 87q10 26 10 54q0 59 -31.5 88t-118.5 50
q-108 28 -145 60q-49 43 -49 130q0 85 49 131t139 46q59 0 120 -22v-44q-76 17 -117 17q-134 0 -134 -138q0 -53 29.5 -78t120.5 -51q100 -29 141 -64q51 -44 51 -121q0 -114 -86 -169q-67 -41 -170 -41h-121q-112 0 -178 55q-73 61 -73 182v153l29 23h28v-178z" />
    <glyph glyph-name="uni0627" unicode="&#x627;" horiz-adv-x="196" 
d="M127 716v-717l-30 -24h-28v741h58z" />
    <glyph glyph-name="uni0628" unicode="&#x628;" horiz-adv-x="939" 
d="M869 460v-377q0 -34 -25 -59q-23 -24 -56 -24h-576q-56 0 -98 42q-45 46 -45 111v211l29 24h29v-230q0 -44 25 -71q30 -34 84 -34h529q47 0 47 47v360h57zM469 -127q16 0 27 -11t11 -27q0 -15 -11 -26.5t-27 -11.5q-15 0 -26 11.5t-11 26.5q0 16 11 27t26 11z" />
    <glyph glyph-name="uni0629" unicode="&#x629;" horiz-adv-x="522" 
d="M330 680q15 0 26.5 -11t11.5 -27q0 -15 -11.5 -26.5t-26.5 -11.5q-16 0 -27 11.5t-11 26.5q0 16 11 27t27 11zM428 680q16 0 27 -11t11 -27q0 -15 -11 -26.5t-27 -11.5q-15 0 -26 11.5t-11 26.5q0 16 11 27t26 11zM466 479v-309q0 -73 -36 -118q-53 -61 -160 -61
q-82 0 -138 44q-77 62 -77 188q0 145 99 213q58 41 139 41q54 0 115 -23l30 25h28zM408 401q-57 22 -107 22q-90 0 -143 -66q-44 -54 -44 -134q0 -90 49 -139q41 -40 108 -40q74 0 106 35t32 91z" />
    <glyph glyph-name="uni062A" unicode="&#x62a;" horiz-adv-x="939" 
d="M421 487q16 0 27 -11.5t11 -26.5q0 -16 -11 -27t-27 -11q-15 0 -26.5 11t-11.5 27q0 15 11.5 26.5t26.5 11.5zM520 487q15 0 26 -11.5t11 -26.5q0 -16 -11 -27t-26 -11q-16 0 -27 11t-11 27q0 15 11 26.5t27 11.5zM869 460v-377q0 -34 -25 -59q-23 -24 -56 -24h-576
q-56 0 -98 42q-45 46 -45 111v211l29 24h29v-230q0 -44 25 -71q30 -34 84 -34h529q47 0 47 47v360h57z" />
    <glyph glyph-name="uni062B" unicode="&#x62b;" horiz-adv-x="939" 
d="M470 565q15 0 26 -11t11 -26q0 -16 -11 -27t-26 -11q-16 0 -27 11t-11 27q0 15 11 26t27 11zM420 487q16 0 27 -11.5t11 -26.5q0 -16 -11 -27t-27 -11q-15 0 -26.5 11t-11.5 27q0 15 11.5 26.5t26.5 11.5zM519 487q16 0 27 -11.5t11 -26.5q0 -16 -11 -27t-27 -11
q-15 0 -26.5 11t-11.5 27q0 15 11.5 26.5t26.5 11.5zM869 460v-377q0 -34 -25 -59q-23 -24 -56 -24h-576q-56 0 -98 42q-45 46 -45 111v211l29 24h29v-230q0 -44 25 -71q30 -34 84 -34h529q47 0 47 47v360h57z" />
    <glyph glyph-name="uni062C" unicode="&#x62c;" horiz-adv-x="626" 
d="M179 445q88 28 160 28q123 0 183 -80q49 -65 49 -173v-137q0 -37 -29 -63q-23 -20 -52 -20h-206q-83 0 -129 -42q-42 -39 -42 -109q0 -97 68 -143q53 -35 140 -35q52 0 134 16v-18l-29 -35q-44 -12 -106 -12q-128 0 -196 56q-69 57 -69 166q0 99 62 153q63 56 181 56h169
q46 0 46 47v132q0 190 -189 190q-67 0 -145 -23v46zM313 -127q15 0 26.5 -11t11.5 -27q0 -15 -11.5 -26.5t-26.5 -11.5q-16 0 -27 11.5t-11 26.5q0 16 11 27t27 11z" />
    <glyph glyph-name="uni062D" unicode="&#x62d;" horiz-adv-x="626" 
d="M179 445q88 28 160 28q107 0 173 -69q59 -61 59 -153v-168q0 -37 -29 -63q-23 -20 -52 -20h-206q-83 0 -129 -42q-42 -39 -42 -109q0 -82 54.5 -128t153.5 -46q52 0 134 17v-23l-29 -35q-44 -12 -106 -12q-128 0 -196 56q-69 57 -69 166q0 99 62 153q63 56 181 56h169
q46 0 46 47v132q0 190 -189 190q-67 0 -145 -23v46z" />
    <glyph glyph-name="uni062E" unicode="&#x62e;" horiz-adv-x="627" 
d="M362 680q15 0 26 -11t11 -27q0 -15 -11 -26.5t-26 -11.5q-16 0 -27 11.5t-11 26.5q0 16 11 27t27 11zM179 445q88 28 160 28q107 0 173 -69q59 -61 59 -153v-168q0 -37 -29 -63q-23 -20 -52 -20h-206q-83 0 -129 -42q-42 -39 -42 -108q0 -83 54.5 -129t153.5 -46
q52 0 134 17v-23l-29 -35q-44 -12 -105 -12q-266 0 -266 222q0 99 62 153q63 56 181 56h169q46 0 46 47v132q0 190 -189 190q-68 0 -145 -23v46z" />
    <glyph glyph-name="uni062F" unicode="&#x62f;" horiz-adv-x="510" 
d="M140 466q40 7 80 7q104 0 170 -64q60 -59 60 -150v-176q0 -34 -26 -59q-23 -24 -55 -24h-330v53h306q47 0 47 47v147q0 93 -65 140q-52 39 -135 39q-28 0 -52 -4v44z" />
    <glyph glyph-name="uni0630" unicode="&#x630;" horiz-adv-x="510" 
d="M176 680q16 0 27 -11t11 -27q0 -15 -11 -26.5t-27 -11.5q-15 0 -26.5 11.5t-11.5 26.5q0 16 11.5 27t26.5 11zM140 466q40 7 80 7q104 0 170 -64q60 -59 60 -150v-176q0 -34 -26 -59q-23 -24 -55 -24h-330v53h306q47 0 47 47v147q0 93 -65 140q-52 39 -135 39
q-28 0 -52 -4v44z" />
    <glyph glyph-name="uni0631" unicode="&#x631;" horiz-adv-x="384" 
d="M314 460v-462q0 -125 -82 -186q-66 -50 -175 -50q-22 0 -40 1l-29 36v17q27 -2 52 -2q111 0 163 42q54 44 54 138v466h57z" />
    <glyph glyph-name="uni0632" unicode="&#x632;" horiz-adv-x="393" 
d="M286 680q15 0 26.5 -11t11.5 -27q0 -15 -11.5 -26.5t-26.5 -11.5q-16 0 -27 11.5t-11 26.5q0 16 11 27t27 11zM314 460v-462q0 -125 -82 -186q-66 -50 -175 -50q-22 0 -40 1l-29 36v17q27 -2 52 -2q111 0 163 42q54 44 54 138v466h57z" />
    <glyph glyph-name="uni0633" unicode="&#x633;" horiz-adv-x="1302" 
d="M1233 460v-377q0 -33 -24 -58t-57 -25h-183l-23 31h-2q-26 -31 -62 -31h-189q0 -115 -66 -177t-186 -62h-120q-113 0 -178 55q-74 62 -74 182v231l29 24h29v-256q0 -104 55 -144t199 -40q131 0 186 35q68 43 68 149v348h58v-292h165q47 0 47 47v303h58v-320q0 -14 -6 -30
h172q47 0 47 47v360h57z" />
    <glyph glyph-name="uni0634" unicode="&#x634;" horiz-adv-x="1302" 
d="M935 758q15 0 26 -11t11 -26q0 -16 -11 -27t-26 -11q-16 0 -27 11t-11 27q0 15 11 26t27 11zM885 680q16 0 27 -11t11 -27q0 -15 -11 -26.5t-27 -11.5q-15 0 -26.5 11.5t-11.5 26.5q0 16 11.5 27t26.5 11zM984 680q16 0 27 -11t11 -27q0 -15 -11 -26.5t-27 -11.5
q-15 0 -26.5 11.5t-11.5 26.5q0 16 11.5 27t26.5 11zM1233 460v-377q0 -33 -24 -58t-57 -25h-183l-23 31h-2q-26 -31 -62 -31h-189q0 -115 -66 -177t-186 -62h-120q-113 0 -178 55q-74 62 -74 182v231l29 24h29v-256q0 -104 55 -144t199 -40q131 0 186 35q68 43 68 149v348
h58v-292h165q47 0 47 47v303h58v-320q0 -14 -6 -30h172q47 0 47 47v360h57z" />
    <glyph glyph-name="uni0635" unicode="&#x635;" horiz-adv-x="1379" 
d="M693 191q85 167 192 232q82 49 196 49q105 0 172 -64q70 -68 70 -178v-147q0 -34 -25 -59q-24 -24 -56 -24h-549q0 -115 -66 -177t-186 -62h-120q-113 0 -178 55q-74 62 -74 182v231l29 24h29v-256q0 -104 55 -144t199 -40q131 0 186 35q68 43 68 149v463h58v-269z
M1266 249q-1 78 -48 123q-52 51 -141 51q-94 0 -166 -46q-136 -88 -216 -324h524q47 0 47 47v149z" />
    <glyph glyph-name="uni0636" unicode="&#x636;" horiz-adv-x="1379" 
d="M1011 680q16 0 27 -11t11 -27q0 -15 -11 -26.5t-27 -11.5q-15 0 -26 11.5t-11 26.5q0 16 11 27t26 11zM693 191q85 167 192 232q82 49 196 49q105 0 172 -64q70 -68 70 -178v-147q0 -34 -25 -59q-24 -24 -56 -24h-549q0 -115 -66 -177t-186 -62h-120q-113 0 -178 55
q-74 62 -74 182v231l29 24h29v-256q0 -104 55 -144t199 -40q131 0 186 35q68 43 68 149v463h58v-269zM1266 249q-1 78 -48 123q-52 51 -141 51q-94 0 -166 -46q-136 -88 -216 -324h524q47 0 47 47v149z" />
    <glyph glyph-name="uni0637" unicode="&#x637;" horiz-adv-x="986" 
d="M300 716v-525q85 167 192 232q82 49 196 49q105 0 173 -64q70 -68 70 -178v-147q0 -34 -26 -59q-23 -24 -55 -24h-771l-24 29v24h187v663h58zM873 249q-1 78 -47 123q-53 51 -142 51q-94 0 -165 -46q-137 -88 -217 -324h524q47 0 47 47v149z" />
    <glyph glyph-name="uni0638" unicode="&#x638;" horiz-adv-x="986" 
d="M300 716v-525q85 167 192 232q82 49 196 49q105 0 173 -64q70 -68 70 -178v-147q0 -34 -26 -59q-23 -24 -55 -24h-771l-24 29v24h187v663h58zM629 680q15 0 26 -11t11 -27q0 -15 -11 -26.5t-26 -11.5q-16 0 -27 11.5t-11 26.5q0 16 11 27t27 11zM873 249q-1 78 -47 123
q-53 51 -142 51q-94 0 -165 -46q-137 -88 -217 -324h524q47 0 47 47v149z" />
    <glyph glyph-name="uni0639" unicode="&#x639;" horiz-adv-x="547" 
d="M187 37q-99 69 -99 202q0 113 70 177q61 56 158 56q51 0 108 -17v-49q-57 16 -105 16q-87 0 -133 -57q-40 -48 -40 -124q0 -75 46 -133q44 -55 106 -55h207v-24l-24 -29h-197q-83 0 -129 -42q-42 -39 -42 -109q0 -82 54.5 -128t153.5 -46q52 0 134 17v-23l-29 -35
q-44 -12 -106 -12q-128 0 -196 56q-69 57 -69 166q0 99 62 153q29 26 70 40z" />
    <glyph glyph-name="uni063A" unicode="&#x63a;" horiz-adv-x="547" 
d="M317 680q16 0 27 -11t11 -27q0 -15 -11 -26.5t-27 -11.5q-15 0 -26 11.5t-11 26.5q0 16 11 27t26 11zM187 37q-99 69 -99 202q0 113 70 177q61 56 158 56q51 0 108 -17v-49q-56 16 -105 16q-88 0 -134 -56q-39 -48 -39 -125q0 -75 46 -133q44 -55 106 -55h207v-24
l-24 -29h-197q-83 0 -129 -42q-42 -39 -42 -108q0 -83 54.5 -129t153.5 -46q52 0 134 17v-23l-29 -35q-44 -12 -105 -12q-266 0 -266 222q0 99 62 153q28 26 70 40z" />
    <glyph glyph-name="uni0640" unicode="&#x640;" horiz-adv-x="178" 
d="M181 53v-53h-185v53h185z" />
    <glyph glyph-name="uni0641" unicode="&#x641;" horiz-adv-x="971" 
d="M730 680q16 0 27 -11t11 -27q0 -15 -11 -26.5t-27 -11.5t-27 11.5t-11 26.5q0 16 11 27t27 11zM572 53q-69 67 -69 187q0 115 68 177q60 55 159 55q82 0 130 -42q56 -47 56 -137v-210q0 -34 -26 -59q-23 -24 -55 -24h-623q-56 0 -98 42q-45 46 -45 111v211l29 24h29v-230
q0 -44 25 -71q30 -34 84 -34h336zM858 292q0 127 -128 127q-168 0 -168 -193q0 -82 44 -130q41 -43 108 -43h97q47 0 47 47v192z" />
    <glyph glyph-name="uni0642" unicode="&#x642;" horiz-adv-x="748" 
d="M459 680q15 0 26.5 -11t11.5 -27q0 -15 -11.5 -26.5t-26.5 -11.5q-16 0 -27 11.5t-11 26.5q0 16 11 27t27 11zM557 680q16 0 27 -11t11 -27q0 -15 -11 -26.5t-27 -11.5q-15 0 -26 11.5t-11 26.5q0 16 11 27t26 11zM635 14q-57 -25 -122 -25q-117 0 -180 79
q-53 67 -53 170q0 122 72 183q58 51 155 51q82 0 130 -42q56 -47 56 -137v-295q0 -113 -66 -175t-186 -62h-120q-113 0 -178 55q-74 62 -74 182v163l29 24h29v-188q0 -104 55 -144t199 -40q140 0 193 39q61 45 61 162zM635 292q0 60 -32 93q-35 34 -95 34q-72 0 -116 -38
q-54 -48 -54 -143t55 -149q50 -48 132 -48q54 0 110 23v228z" />
    <glyph glyph-name="uni0643" unicode="&#x643;" horiz-adv-x="939" 
d="M869 716v-633q0 -34 -25 -59q-23 -24 -56 -24h-576q-56 0 -98 42q-45 46 -45 111v211l29 24h29v-230q0 -44 25 -71q30 -34 84 -34h529q24 0 36 13q11 13 11 34v616h57zM406 388q-31 44 -31 98q0 57 34 92t90 35q35 0 57 -7v-39q-24 8 -49 8q-87 0 -87 -87q0 -44 19.5 -72
t51.5 -28h121v-19l-15 -19h-273v38h82z" />
    <glyph glyph-name="uni0644" unicode="&#x644;" horiz-adv-x="762" 
d="M693 716v-718q0 -113 -66 -175t-186 -62h-120q-113 0 -178 55q-74 62 -74 182v231l29 24h29v-256q0 -104 55 -144t199 -40q131 0 186 35q68 43 68 149v719h58z" />
    <glyph glyph-name="uni0645" unicode="&#x645;" horiz-adv-x="601" 
d="M203 53q-68 65 -68 172q0 118 66 185q59 61 157 61q86 0 134 -41q53 -46 53 -138v-209q0 -34 -26 -59q-23 -24 -55 -24h-305q-46 0 -46 -47v-302l-30 -24h-28v343q0 32 24.5 57.5t56.5 25.5h67zM487 292q0 59 -40 97q-35 29 -89 29q-81 0 -128 -66q-38 -53 -38 -126
q0 -83 45 -130q40 -43 108 -43h96q46 0 46 47v192z" />
    <glyph glyph-name="uni0646" unicode="&#x646;" horiz-adv-x="762" 
d="M370 472q15 0 26 -11t11 -27q0 -15 -11 -26.5t-26 -11.5q-16 0 -27 11.5t-11 26.5q0 16 11 27t27 11zM693 460v-462q0 -113 -66 -175t-186 -62h-120q-113 0 -178 55q-74 62 -74 182v231l29 24h29v-256q0 -104 55 -144t199 -40q131 0 186 35q68 43 68 149v463h58z" />
    <glyph glyph-name="uni0647" unicode="&#x647;" horiz-adv-x="522" 
d="M466 479v-309q0 -73 -36 -118q-53 -61 -160 -61q-82 0 -138 44q-77 62 -77 188q0 145 99 213q58 41 139 41q54 0 115 -23l30 25h28zM408 401q-57 22 -107 22q-90 0 -143 -66q-44 -54 -44 -134q0 -90 49 -139q41 -40 108 -40q74 0 106 35t32 91z" />
    <glyph glyph-name="uni0648" unicode="&#x648;" horiz-adv-x="523" 
d="M410 14q-58 -25 -123 -25q-113 0 -175 73q-57 66 -57 176q0 122 71 183q59 51 156 51q81 0 130 -42q55 -47 55 -137v-295q0 -125 -82 -186q-66 -50 -175 -50q-22 0 -40 1l-29 36v17q27 -2 52 -2q131 0 180 58q37 42 37 142zM410 292q0 60 -33 93q-34 34 -95 34
q-81 0 -125 -47t-44 -134q0 -100 59 -153q50 -44 130 -44q51 0 108 23v228z" />
    <glyph glyph-name="uni0649" unicode="&#x649;" horiz-adv-x="744" 
d="M127 -4q0 -100 52 -140.5t180 -40.5q123 0 166 11q80 21 107 87q10 26 10 54q0 59 -31 88t-118 50q-108 27 -146 60q-48 43 -48 130q0 85 48.5 131t139.5 46q58 0 119 -22v-44q-76 17 -117 17q-134 0 -134 -138q0 -52 29.5 -77.5t118.5 -51.5q102 -28 143 -63
q52 -45 52 -122q0 -114 -87 -169q-66 -41 -170 -41h-120q-112 0 -178 55q-74 61 -74 182v153l29 23h29v-178z" />
    <glyph glyph-name="uni064A" unicode="&#x64a;" horiz-adv-x="744" 
d="M127 -4q0 -100 52 -140.5t180 -40.5q123 0 166 11q80 21 107 87q10 26 10 54q0 59 -31 88t-119 50q-108 28 -145 60q-48 43 -48 130q0 85 48.5 131t139.5 46q58 0 119 -22v-44q-76 17 -117 17q-134 0 -134 -138q0 -52 29.5 -77.5t118.5 -51.5q102 -28 143 -63
q52 -45 52 -122q0 -114 -87 -169q-66 -41 -170 -41h-120q-112 0 -178 55q-74 61 -74 182v153l29 23h29v-178zM329 -297q16 0 27 -11.5t11 -26.5q0 -16 -11 -27t-27 -11q-15 0 -26.5 11t-11.5 27q0 15 11.5 26.5t26.5 11.5zM428 -297q15 0 26 -11.5t11 -26.5q0 -16 -11 -27
t-26 -11q-16 0 -27 11t-11 27q0 15 11 26.5t27 11.5z" />
    <glyph glyph-name="uni064B" unicode="&#x64b;" 
d="M15 631l-15 19v11l210 58v-35zM15 546l-15 18v12l210 58v-35z" />
    <glyph glyph-name="uni064C" unicode="&#x64c;" 
d="M221 576q-38 26 -38 67q0 31 21 52.5t51 21.5t49 -21t19 -52q0 -44 -39.5 -76.5t-91.5 -32.5q-66 0 -107 50l-54 -47h-19l-12 10l90 79q35 -58 98 -58q19 0 33 7zM255 590q38 17 38 53q0 44 -39 44q-41 0 -41 -44q0 -18 12 -33.5t30 -19.5z" />
    <glyph glyph-name="uni064D" unicode="&#x64d;" 
d="M15 -183l-15 19v11l210 58v-34zM15 -268l-15 19v11l210 58v-34z" />
    <glyph glyph-name="uni064E" unicode="&#x64e;" 
d="M15 572l-15 18v12l210 58v-35z" />
    <glyph glyph-name="uni064F" unicode="&#x64f;" 
d="M108 589q-36 18 -36 66q0 31 20.5 51.5t51.5 20.5q29 0 48.5 -20.5t19.5 -52.5q0 -67 -76 -90l-122 -34l-14 16v13zM144 601q38 17 38 52q0 45 -39 45q-41 0 -41 -44q0 -18 12 -33.5t30 -19.5z" />
    <glyph glyph-name="uni0650" unicode="&#x650;" 
d="M15 -206l-15 18v12l210 58v-35z" />
    <glyph glyph-name="uni0651" unicode="&#x651;" 
d="M223 693v-105q0 -19 -12 -31q-12 -14 -34 -14h-43l-10 11h-1q-3 -3 -7 -6q-8 -5 -16 -5h-54q-19 0 -33 12q-13 14 -13 33v66l17 15h18v-77q0 -7 3 -10q6 -7 14 -7h25q8 0 12 5q4 4 4 11v78h36v-94h41q8 0 13 5t5 12v101h35z" />
    <glyph glyph-name="uni0652" unicode="&#x652;" 
d="M70 693q30 0 50 -21t20 -52q0 -69 -70 -69q-32 0 -51 18.5t-19 50.5q0 31 20.5 52t49.5 21zM70 579q18 0 30 12.5t12 30.5t-12.5 30.5t-29.5 12.5t-29.5 -13t-12.5 -30q0 -18 12 -30.5t30 -12.5z" />
    <glyph glyph-name="uni0653" unicode="&#x653;" 
d="M22 600q35 55 79 55q24 0 61 -18q13 -7 21 -10q23 -9 44 -9q31 0 51 23l18 -12q-42 -52 -80 -52q-20 0 -44 10q-9 3 -26 12q-33 16 -49 16q-26 0 -58 -28z" />
    <glyph glyph-name="uni0654" unicode="&#x654;" 
d="M43 606q-23 28 -23 71q0 34 22.5 57t56.5 23q24 0 49 -9v-30q-20 7 -38 7q-56 0 -56 -59q0 -23 15 -40q19 -20 47 -20h64v-12l-16 -20h-164v32h43z" />
    <glyph glyph-name="uni0655" unicode="&#x655;" 
d="M43 -225q-23 28 -23 71q0 35 22.5 57.5t56.5 22.5q24 0 49 -8v-30q-20 6 -38 6q-56 0 -56 -58q0 -23 15 -40q19 -21 47 -21h64v-11l-16 -20h-164v31h43z" />
    <glyph glyph-name="uni0656" unicode="&#x656;" 
d="M36 -75v-195l-19 -14h-17v209h36z" />
    <glyph glyph-name="uni0657" unicode="&#x657;" 
d="M40 590q4 1 8 1q37 0 37 -38q0 -40 -37 -40q-47 0 -47 67q0 73 58 136h18l15 -12q-25 -29 -41 -66q-11 -30 -11 -48z" />
    <glyph glyph-name="uni0658" unicode="&#x658;" 
d="M30 662v-73q0 -48 65 -48q66 0 66 47v130h30v-133q0 -33 -26.5 -52.5t-68.5 -19.5q-96 0 -96 70v64l18 15h12z" />
    <glyph glyph-name="uni0660" unicode="&#x660;" horiz-adv-x="213" 
d="M107 296l62 -62v-28l-61 -62l-76 75z" />
    <glyph glyph-name="uni0661" unicode="&#x661;" horiz-adv-x="242" 
d="M150 674v-650l-30 -24h-28v674h58z" />
    <glyph glyph-name="uni0662" unicode="&#x662;" horiz-adv-x="520" 
d="M92 460q0 118 68 177q58 50 159 50q69 0 132 -21v-57q-64 21 -121 21q-89 0 -136 -48q-44 -44 -44 -122v-436l-30 -24h-28v460z" />
    <glyph glyph-name="uni0663" unicode="&#x663;" horiz-adv-x="738" 
d="M150 674v-265q39 -19 99 -19q68 0 92 26q20 21 20 62v196h56v-186q0 -42 -10 -70q42 -26 112 -27q66 0 90 26q19 21 19 61v196h55v-181q0 -50 -12 -81q-10 -27 -30 -44q-38 -32 -114 -32q-94 0 -139 43q-47 -43 -124 -43q-54 0 -114 22v-334l-30 -24h-28v674h58z" />
    <glyph glyph-name="uni0664" unicode="&#x664;" horiz-adv-x="488" 
d="M191 369q-40 14 -64 48q-33 44 -33 102q0 79 50 123.5t138 44.5q61 0 117 -22v-47q-57 16 -108 16q-67 0 -103 -31q-36 -30 -36 -86q0 -68 45 -102q32 -24 87 -24h103v-24l-24 -29q-104 0 -166 -32q-74 -38 -74 -118q0 -69 59 -106q44 -29 107 -29h137v-24l-24 -29h-133
q-91 0 -149 56q-54 52 -54 130q0 59 35.5 111t89.5 72z" />
    <glyph glyph-name="uni0665" unicode="&#x665;" horiz-adv-x="513" 
d="M226 587h62q93 -34 146 -162q39 -94 39 -192q0 -118 -57 -181q-55 -61 -155 -61q-116 0 -170 77q-43 61 -43 164q0 116 48 219q50 107 130 136zM272 537h-23q-69 -24 -111 -133q-32 -80 -32 -153q0 -206 155 -206q153 0 153 189q0 95 -39 186q-40 94 -103 117z" />
    <glyph glyph-name="uni0666" unicode="&#x666;" horiz-adv-x="520" 
d="M69 666q63 21 132 21q117 0 175 -66q52 -57 52 -161v-436l-29 -24h-28v460q0 80 -48 125.5t-133 45.5q-56 0 -121 -22v57z" />
    <glyph glyph-name="uni0667" unicode="&#x667;" horiz-adv-x="472" 
d="M442 679l-135 -561q-15 -60 -27 -84q-9 -17 -20 -28q-4 -4 -9 -6h-30q-6 2 -11 7q-9 10 -18 30q-14 28 -27 81l-135 561h67l139 -625l140 625h66z" />
    <glyph glyph-name="uni0668" unicode="&#x668;" horiz-adv-x="472" 
d="M221 679h30q4 -2 9 -6q12 -12 21 -32q12 -22 26 -80l135 -561h-66l-140 625l-139 -625h-67l135 561q12 46 23 73q10 25 22 38q5 4 11 7z" />
    <glyph glyph-name="uni0669" unicode="&#x669;" horiz-adv-x="508" 
d="M260 297q-95 0 -151 45q-63 50 -63 143q0 92 54 144q56 57 150 57q73 0 121 -38q63 -52 63 -155v-469l-29 -24h-28v297h-117zM377 499q0 63 -35 99q-36 36 -99 36q-58 0 -98.5 -42.5t-40.5 -102.5q0 -65 42.5 -102t117.5 -37h113v149z" />
    <glyph glyph-name="uni066A" unicode="&#x66a;" horiz-adv-x="500" 
d="M130 690l54 -54v-25l-54 -55l-68 67zM468 673l-397 -673h-53l396 673h54zM377 131l54 -54v-25l-54 -56l-68 67z" />
    <glyph glyph-name="uni066B" unicode="&#x66b;" horiz-adv-x="191" 
d="M103 20q-4 -1 -8 -1q-36 0 -36 38q0 40 37 40q46 0 46 -67q0 -73 -57 -136h-19l-15 12q25 29 41 66q11 30 11 48z" />
    <glyph glyph-name="uni066C" unicode="&#x66c;" horiz-adv-x="192" 
d="M128 198l15 -11q-25 -28 -41 -67q-11 -29 -11 -47q4 1 8 1q16 0 26.5 -11.5t10.5 -27.5t-11 -28t-26 -12q-47 0 -47 68q0 73 58 135h18z" />
    <glyph glyph-name="uni066D" unicode="&#x66d;" horiz-adv-x="427" 
d="M233 682v-168l139 59l13 -41l-152 -36l98 -128l-33 -23l-85 132l-85 -133l-33 25l98 127l-152 36l13 41l139 -59v151l21 17h19z" />
    <glyph glyph-name="uni066E" unicode="&#x66e;" horiz-adv-x="939" 
d="M869 460v-377q0 -34 -25 -59q-23 -24 -56 -24h-576q-56 0 -98 42q-45 46 -45 111v211l29 24h29v-230q0 -44 25 -71q30 -34 84 -34h529q47 0 47 47v360h57z" />
    <glyph glyph-name="uni066F" unicode="&#x66f;" horiz-adv-x="748" 
d="M635 14q-57 -25 -122 -25q-117 0 -180 79q-53 67 -53 170q0 122 72 183q58 51 155 51q82 0 130 -42q56 -47 56 -137v-295q0 -113 -66 -175t-186 -62h-120q-113 0 -178 55q-74 62 -74 182v163l29 24h29v-188q0 -104 55 -144t199 -40q140 0 193 39q61 45 61 162zM635 292
q0 60 -32 93q-35 34 -95 34q-72 0 -116 -38q-54 -48 -54 -143t55 -149q50 -48 132 -48q54 0 110 23v228z" />
    <glyph glyph-name="uni0670" unicode="&#x670;" 
d="M36 716v-194l-19 -15h-17v209h36z" />
    <glyph glyph-name="uni0671" unicode="&#x671;" horiz-adv-x="196" 
d="M52 853q52 82 118 82q30 0 50 -18.5t20 -45.5q0 -35 -28.5 -56.5t-74.5 -21.5q-39 0 -95 19q-38 12 -48 12q-26 0 -58 -27l-17 13q35 55 78 55q19 0 55 -12zM81 841q45 -14 72 -14q24 0 40 11.5t16 29.5q0 34 -38 34q-47 0 -90 -61zM127 716v-717l-29 -24h-28v741h57z
" />
    <glyph glyph-name="uni0674" unicode="&#x674;" 
d="M43 606q-23 28 -23 71q0 34 22.5 57t56.5 23q24 0 49 -9v-30q-20 7 -38 7q-56 0 -56 -59q0 -23 15 -40q19 -20 47 -20h64v-12l-16 -20h-164v32h43z" />
    <glyph glyph-name="uni0679" unicode="&#x679;" horiz-adv-x="939" 
d="M416 576l-2 -96q49 77 122 77q34 0 54 -23t20 -61v-28q0 -21 -10 -35q-16 -22 -46 -22h-193v32h26v156h29zM575 469q0 31 -15 43q-11 10 -30 10q-29 -1 -64 -29q-34 -30 -52 -73h138q23 0 23 24v25zM869 460v-377q0 -34 -25 -59q-23 -24 -56 -24h-576q-56 0 -98 42
q-45 46 -45 111v211l29 24h29v-230q0 -44 25 -71q30 -34 84 -34h529q47 0 47 47v360h57z" />
    <glyph glyph-name="uni067E" unicode="&#x67e;" horiz-adv-x="939" 
d="M869 460v-377q0 -34 -25 -59q-23 -24 -56 -24h-576q-56 0 -98 42q-45 46 -45 111v211l29 24h29v-230q0 -44 25 -71q30 -34 84 -34h529q47 0 47 47v360h57zM420 -127q15 0 26.5 -11t11.5 -27q0 -15 -11.5 -26.5t-26.5 -11.5q-16 0 -27 11.5t-11 26.5q0 16 11 27t27 11z
M519 -127q15 0 26 -11t11 -27q0 -15 -11 -26.5t-26 -11.5q-16 0 -27 11.5t-11 26.5q0 16 11 27t27 11zM469 -206q16 0 27 -11t11 -27q0 -15 -11 -26t-27 -11q-15 0 -26 11t-11 26q0 16 11 27t26 11z" />
    <glyph glyph-name="uni0686" unicode="&#x686;" horiz-adv-x="626" 
d="M179 445q88 28 160 28q123 0 183 -80q49 -65 49 -173v-137q0 -37 -29 -63q-23 -20 -52 -20h-206q-83 0 -129 -42q-42 -39 -42 -109q0 -85 55 -134q48 -42 122 -42q12 0 23 2v-16l-26 -32q-7 -1 -15 -1q-103 0 -164 69q-53 60 -53 149q0 99 62 153q63 56 181 56h169
q46 0 46 47v132q0 190 -189 190q-67 0 -145 -23v46zM296 -127q15 0 26 -11t11 -27q0 -15 -11 -26.5t-26 -11.5q-16 0 -27 11.5t-11 26.5q0 16 11 27t27 11zM395 -127q15 0 26 -11t11 -27q0 -15 -11 -26.5t-26 -11.5q-16 0 -27 11.5t-11 26.5q0 16 11 27t27 11zM345 -206
q15 0 26.5 -11t11.5 -26q0 -16 -11 -27t-27 -11q-15 0 -26 11t-11 27q0 15 11 26t26 11z" />
    <glyph glyph-name="uni0688" unicode="&#x688;" horiz-adv-x="510" 
d="M169 795l-2 -96q49 76 122 76q34 0 54.5 -22.5t20.5 -61.5v-28q0 -20 -11 -35q-16 -21 -46 -21h-193v31h26v157h29zM329 688q0 30 -16 43q-11 9 -30 9q-29 -1 -64 -28q-33 -30 -52 -74h138q24 0 24 24v26zM140 466q40 7 80 7q104 0 170 -64q60 -59 60 -150v-176
q0 -34 -26 -59q-23 -24 -55 -24h-330v53h306q47 0 47 47v147q0 93 -65 140q-52 39 -135 39q-28 0 -52 -4v44z" />
    </font>
</defs>
</svg>
